<svg width="37" height="36" viewBox="0 0 37 36" fill="none" xmlns="http://www.w3.org/2000/svg">
<path d="M18.7334 0C21.1203 0 23.4095 0.948211 25.0974 2.63604C26.7852 4.32387 27.7334 6.61305 27.7334 9C27.7334 11.3869 26.7852 13.6761 25.0974 15.364C23.4095 17.0518 21.1203 18 18.7334 18C16.3464 18 14.0573 17.0518 12.3694 15.364C10.6816 13.6761 9.7334 11.3869 9.7334 9C9.7334 6.61305 10.6816 4.32387 12.3694 2.63604C14.0573 0.948211 16.3464 0 18.7334 0ZM18.7334 22.5C28.6784 22.5 36.7334 26.5275 36.7334 31.5V36H0.733398V31.5C0.733398 26.5275 8.7884 22.5 18.7334 22.5Z" fill="url(#paint0_linear_57_144)"/>
<defs>
<linearGradient id="paint0_linear_57_144" x1="0.733398" y1="11.4393" x2="36.6672" y2="35.7762" gradientUnits="userSpaceOnUse">
<stop stop-color="#F36B23"/>
<stop offset="1" stop-color="#FF8F50"/>
</linearGradient>
</defs>
</svg>
