<svg width="48" height="48" viewBox="0 0 48 48" fill="none" xmlns="http://www.w3.org/2000/svg">
<rect x="0.5" y="0.5" width="47" height="47" rx="11.5" fill="white"/>
<rect x="0.5" y="0.5" width="47" height="47" rx="11.5" stroke="url(#paint0_linear_57_394)"/>
<path d="M11.72 31V29.04H13.68V31H11.72ZM24.5206 31V25.59C24.5206 25.0767 24.474 24.5833 24.3806 24.11C24.294 23.6367 24.1373 23.2133 23.9106 22.84C23.6906 22.46 23.3906 22.16 23.0106 21.94C22.6373 21.72 22.164 21.61 21.5906 21.61C21.144 21.61 20.7373 21.6867 20.3706 21.84C20.0106 21.9867 19.7006 22.2133 19.4406 22.52C19.1806 22.8267 18.9773 23.2133 18.8306 23.68C18.6906 24.14 18.6206 24.6833 18.6206 25.31L17.4506 24.95C17.4506 23.9033 17.6373 23.0067 18.0106 22.26C18.3906 21.5067 18.9206 20.93 19.6006 20.53C20.2873 20.1233 21.094 19.92 22.0206 19.92C22.7206 19.92 23.3173 20.03 23.8106 20.25C24.304 20.47 24.714 20.7633 25.0406 21.13C25.3673 21.49 25.624 21.8967 25.8106 22.35C25.9973 22.7967 26.1273 23.2533 26.2006 23.72C26.2806 24.18 26.3206 24.6167 26.3206 25.03V31H24.5206ZM16.8206 31V20.2H18.4206V23.09H18.6206V31H16.8206ZM33.9205 31.3C32.9071 31.3 32.0538 31.05 31.3605 30.55C30.6671 30.0433 30.1405 29.36 29.7805 28.5C29.4271 27.6333 29.2505 26.6633 29.2505 25.59C29.2505 24.5033 29.4271 23.53 29.7805 22.67C30.1405 21.81 30.6671 21.1333 31.3605 20.64C32.0605 20.1467 32.9171 19.9 33.9305 19.9C34.9305 19.9 35.7905 20.15 36.5105 20.65C37.2371 21.1433 37.7938 21.82 38.1805 22.68C38.5671 23.54 38.7605 24.51 38.7605 25.59C38.7605 26.67 38.5671 27.64 38.1805 28.5C37.7938 29.36 37.2371 30.0433 36.5105 30.55C35.7905 31.05 34.9271 31.3 33.9205 31.3ZM28.9505 35.8V20.2H30.5405V28.15H30.7405V35.8H28.9505ZM33.7005 29.67C34.4138 29.67 35.0038 29.49 35.4705 29.13C35.9371 28.77 36.2871 28.2833 36.5205 27.67C36.7538 27.05 36.8705 26.3567 36.8705 25.59C36.8705 24.83 36.7538 24.1433 36.5205 23.53C36.2938 22.9167 35.9405 22.43 35.4605 22.07C34.9871 21.71 34.3838 21.53 33.6505 21.53C32.9505 21.53 32.3705 21.7033 31.9105 22.05C31.4505 22.39 31.1071 22.8667 30.8805 23.48C30.6538 24.0867 30.5405 24.79 30.5405 25.59C30.5405 26.3767 30.6505 27.08 30.8705 27.7C31.0971 28.3133 31.4438 28.7967 31.9105 29.15C32.3771 29.4967 32.9738 29.67 33.7005 29.67Z" fill="url(#paint1_linear_57_394)"/>
<defs>
<linearGradient id="paint0_linear_57_394" x1="47.9927" y1="48" x2="-14.3551" y2="-10.0935" gradientUnits="userSpaceOnUse">
<stop stop-color="#00C2E0"/>
<stop offset="1" stop-color="#00A3BF" stop-opacity="0.35"/>
</linearGradient>
<linearGradient id="paint1_linear_57_394" x1="39.9955" y1="35" x2="9.10339" y2="-0.980123" gradientUnits="userSpaceOnUse">
<stop stop-color="#00C2E0"/>
<stop offset="1" stop-color="#00A3BF" stop-opacity="0.35"/>
</linearGradient>
</defs>
</svg>
