<svg width="48" height="48" viewBox="0 0 48 48" fill="none" xmlns="http://www.w3.org/2000/svg">
<rect x="0.5" y="0.5" width="47" height="47" rx="11.5" fill="white"/>
<rect x="0.5" y="0.5" width="47" height="47" rx="11.5" stroke="url(#paint0_linear_57_235)"/>
<path d="M9 24C9 27.9782 10.5804 31.7936 13.3934 34.6066C16.2064 37.4196 20.0218 39 24 39C27.9782 39 31.7936 37.4196 34.6066 34.6066C37.4196 31.7936 39 27.9782 39 24C39 20.0218 37.4196 16.2064 34.6066 13.3934C31.7936 10.5804 27.9782 9 24 9C20.0218 9 16.2064 10.5804 13.3934 13.3934C10.5804 16.2064 9 20.0218 9 24Z" stroke="url(#paint1_linear_57_235)" stroke-width="1.5" stroke-linejoin="round"/>
<path d="M17.5713 24C17.5713 20.0218 18.2486 16.2064 19.4542 13.3934C20.6598 10.5804 22.2949 9 23.9999 9C25.7048 9 27.34 10.5804 28.5455 13.3934C29.7511 16.2064 30.4284 20.0218 30.4284 24C30.4284 27.9782 29.7511 31.7936 28.5455 34.6066C27.34 37.4196 25.7048 39 23.9999 39C22.2949 39 20.6598 37.4196 19.4542 34.6066C18.2486 31.7936 17.5713 27.9782 17.5713 24Z" stroke="url(#paint2_linear_57_235)" stroke-width="1.5" stroke-linejoin="round"/>
<path d="M10.0713 29H37.9284M10.0713 19H37.9284" stroke="url(#paint3_linear_57_235)" stroke-width="1.5" stroke-linecap="round"/>
<defs>
<linearGradient id="paint0_linear_57_235" x1="-2.12902e-08" y1="15.2523" x2="47.9118" y2="47.7017" gradientUnits="userSpaceOnUse">
<stop stop-color="#F36B23"/>
<stop offset="1" stop-color="#FF8F50"/>
</linearGradient>
<linearGradient id="paint1_linear_57_235" x1="9" y1="18.5327" x2="38.9449" y2="38.8135" gradientUnits="userSpaceOnUse">
<stop stop-color="#F36B23"/>
<stop offset="1" stop-color="#FF8F50"/>
</linearGradient>
<linearGradient id="paint2_linear_57_235" x1="17.5713" y1="18.5327" x2="34.8369" y2="23.5442" gradientUnits="userSpaceOnUse">
<stop stop-color="#F36B23"/>
<stop offset="1" stop-color="#FF8F50"/>
</linearGradient>
<linearGradient id="paint3_linear_57_235" x1="10.0713" y1="22.1776" x2="18.9669" y2="38.9609" gradientUnits="userSpaceOnUse">
<stop stop-color="#F36B23"/>
<stop offset="1" stop-color="#FF8F50"/>
</linearGradient>
</defs>
</svg>
