<svg width="48" height="48" viewBox="0 0 48 48" fill="none" xmlns="http://www.w3.org/2000/svg">
<rect x="0.5" y="0.5" width="47" height="47" rx="11.5" fill="white"/>
<rect x="0.5" y="0.5" width="47" height="47" rx="11.5" stroke="url(#paint0_linear_57_264)"/>
<path d="M24.4997 9C24.1007 9 23.6869 9.10345 23.347 9.29557L12.3519 15.6502C11.6426 16.064 11.1992 16.8325 11.1992 17.6601V30.3399C11.1992 31.1675 11.6426 31.936 12.3519 32.3498L15.2337 34.0049C16.6376 34.6847 17.1105 34.6995 17.7608 34.6995C19.8298 34.6995 21.0268 33.4433 21.0268 31.2562V18.7389C21.0268 18.5616 20.879 18.4138 20.7017 18.4138H19.3273C19.1352 18.4138 18.9874 18.5616 18.9874 18.7389V31.2562C18.9874 32.2315 17.9825 33.1921 16.3716 32.3793L13.3421 30.6502C13.2923 30.6151 13.2516 30.5686 13.2234 30.5147C13.1951 30.4607 13.1801 30.4008 13.1795 30.3399V17.6601C13.1795 17.5271 13.2386 17.4089 13.3421 17.3498L24.3372 11.0099C24.4258 10.9507 24.5736 10.9507 24.6623 11.0099L35.6573 17.3498C35.7608 17.4089 35.8199 17.5271 35.8199 17.6601V30.3399C35.8199 30.4581 35.7608 30.5764 35.6573 30.6502L24.6623 36.9901C24.5736 37.0493 24.4258 37.0493 24.3224 36.9901L21.544 35.3054C21.4258 35.2611 21.3076 35.2463 21.2337 35.2906C20.4505 35.734 20.3027 35.8227 19.5785 36.0443C19.4012 36.1034 19.1204 36.2069 19.682 36.5172L23.347 38.6897C23.7017 38.8966 24.0859 39 24.4997 39C24.9135 39 25.2977 38.8966 25.6524 38.6897L36.6475 32.3498C37.3569 31.936 37.8002 31.1675 37.8002 30.3399V17.6601C37.8002 16.8325 37.3569 16.064 36.6475 15.6502L25.6524 9.29557C25.3125 9.10345 24.9135 9 24.4997 9ZM27.4554 18.0887C24.3224 18.0887 22.4455 19.4039 22.4455 21.6207C22.4455 24 24.3076 24.6946 27.3224 24.9901C30.9135 25.3448 31.1943 25.8768 31.1943 26.5862C31.1943 27.8128 30.2041 28.33 27.8987 28.33C24.9726 28.33 24.3519 27.6059 24.1303 26.1576C24.1147 26.0828 24.0739 26.0155 24.0147 25.9671C23.9556 25.9187 23.8816 25.8921 23.8051 25.8916H22.3864C22.2091 25.8916 22.0761 26.0246 22.0761 26.2167C22.0761 28.0493 23.081 30.266 27.8987 30.266C31.3716 30.266 33.3667 28.8916 33.3667 26.4975C33.3667 24.1182 31.7706 23.4975 28.3864 23.0394C24.9726 22.5961 24.6327 22.3596 24.6327 21.5616C24.6327 20.8966 24.9283 20.0099 27.4554 20.0099C29.6721 20.0099 30.544 20.4975 30.8839 22.0197C30.9135 22.1675 31.0465 22.2709 31.1943 22.2709H32.6278C32.7017 22.2709 32.7904 22.2414 32.8495 22.1675C32.9086 22.1084 32.9529 22.0197 32.9234 21.931C32.7165 19.3005 30.9726 18.0887 27.4554 18.0887Z" fill="url(#paint1_linear_57_264)"/>
<defs>
<linearGradient id="paint0_linear_57_264" x1="47.9927" y1="48" x2="-14.3551" y2="-10.0935" gradientUnits="userSpaceOnUse">
<stop stop-color="#00C2E0"/>
<stop offset="1" stop-color="#00A3BF" stop-opacity="0.35"/>
</linearGradient>
<linearGradient id="paint1_linear_57_264" x1="37.7962" y1="39" x2="-0.567259" y2="7.30436" gradientUnits="userSpaceOnUse">
<stop stop-color="#00C2E0"/>
<stop offset="1" stop-color="#00A3BF" stop-opacity="0.35"/>
</linearGradient>
</defs>
</svg>
