<svg width="48" height="48" viewBox="0 0 48 48" fill="none" xmlns="http://www.w3.org/2000/svg">
<rect x="0.5" y="0.5" width="47" height="47" rx="11.5" fill="white"/>
<rect x="0.5" y="0.5" width="47" height="47" rx="11.5" stroke="url(#paint0_linear_57_231)"/>
<path d="M24 9C15.735 9 9 15.735 9 24C9 32.265 15.735 39 24 39C32.265 39 39 32.265 39 24C39 15.735 32.265 9 24 9ZM10.515 24C10.515 22.05 10.935 20.19 11.685 18.51L18.12 36.135C13.62 33.945 10.515 29.34 10.515 24ZM24 37.485C22.68 37.485 21.405 37.29 20.19 36.93L24.24 25.17L28.38 36.525C28.41 36.585 28.44 36.66 28.47 36.705C27.075 37.215 25.575 37.485 24 37.485ZM25.86 17.67C26.67 17.625 27.405 17.535 27.405 17.535C28.125 17.445 28.05 16.38 27.315 16.425C27.315 16.425 25.125 16.59 23.715 16.59C22.395 16.59 20.16 16.425 20.16 16.425C19.44 16.395 19.35 17.505 20.085 17.55C20.085 17.55 20.775 17.64 21.495 17.685L23.595 23.445L20.64 32.295L15.735 17.67C16.545 17.64 17.28 17.55 17.28 17.55C18 17.46 17.925 16.395 17.19 16.44C17.19 16.44 15 16.605 13.59 16.605C13.335 16.605 13.035 16.605 12.72 16.59C15.15 12.93 19.29 10.515 24 10.515C27.51 10.515 30.705 11.85 33.105 14.055C33.045 14.055 32.985 14.04 32.925 14.04C31.605 14.04 30.66 15.195 30.66 16.44C30.66 17.55 31.305 18.495 31.98 19.605C32.49 20.505 33.09 21.66 33.09 23.325C33.09 24.48 32.64 25.815 32.07 27.69L30.72 32.19L25.86 17.67ZM35.835 17.535C37.519 20.6186 37.9331 24.2377 36.9889 27.622C36.0448 31.0063 33.8171 33.8885 30.78 35.655L34.905 23.745C35.67 21.825 35.925 20.28 35.925 18.915C35.925 18.42 35.895 17.955 35.835 17.535Z" fill="url(#paint1_linear_57_231)"/>
<defs>
<linearGradient id="paint0_linear_57_231" x1="-2.12902e-08" y1="15.2523" x2="47.9118" y2="47.7017" gradientUnits="userSpaceOnUse">
<stop stop-color="#F36B23"/>
<stop offset="1" stop-color="#FF8F50"/>
</linearGradient>
<linearGradient id="paint1_linear_57_231" x1="9" y1="18.5327" x2="38.9449" y2="38.8135" gradientUnits="userSpaceOnUse">
<stop stop-color="#F36B23"/>
<stop offset="1" stop-color="#FF8F50"/>
</linearGradient>
</defs>
</svg>
