<svg width="48" height="48" viewBox="0 0 48 48" fill="none" xmlns="http://www.w3.org/2000/svg">
<rect x="0.5" y="0.5" width="47" height="47" rx="11.5" fill="white"/>
<rect x="0.5" y="0.5" width="47" height="47" rx="11.5" stroke="url(#paint0_linear_57_408)"/>
<path d="M34.8333 9H13.1667C12.592 9 12.0409 9.22576 11.6346 9.62763C11.2283 10.0295 11 10.5745 11 11.1429V15.4286C11 15.9969 11.2283 16.5419 11.6346 16.9438C12.0409 17.3457 12.592 17.5714 13.1667 17.5714H22.9167V24.1821L20.1108 21.4179L18.5833 22.9286L24 28.2857L29.4167 22.9286L27.8892 21.4179L25.0833 24.1821V17.5714H34.8333C35.408 17.5714 35.9591 17.3457 36.3654 16.9438C36.7717 16.5419 37 15.9969 37 15.4286V11.1429C37 10.5745 36.7717 10.0295 36.3654 9.62763C35.9591 9.22576 35.408 9 34.8333 9ZM13.1667 11.1429H17.5V15.4286H13.1667V11.1429ZM34.8333 15.4286H19.6667V11.1429H34.8333V15.4286ZM34.8333 30.4286H13.1667C12.592 30.4286 12.0409 30.6543 11.6346 31.0562C11.2283 31.4581 11 32.0031 11 32.5714V36.8571C11 37.4255 11.2283 37.9705 11.6346 38.3724C12.0409 38.7742 12.592 39 13.1667 39H34.8333C35.408 39 35.9591 38.7742 36.3654 38.3724C36.7717 37.9705 37 37.4255 37 36.8571V32.5714C37 32.0031 36.7717 31.4581 36.3654 31.0562C35.9591 30.6543 35.408 30.4286 34.8333 30.4286ZM13.1667 32.5714H28.3333V36.8571H13.1667V32.5714ZM34.8333 36.8571H30.5V32.5714H34.8333V36.8571Z" fill="url(#paint1_linear_57_408)"/>
<defs>
<linearGradient id="paint0_linear_57_408" x1="47.9927" y1="48" x2="-14.3551" y2="-10.0935" gradientUnits="userSpaceOnUse">
<stop stop-color="#00C2E0"/>
<stop offset="1" stop-color="#00A3BF" stop-opacity="0.35"/>
</linearGradient>
<linearGradient id="paint1_linear_57_408" x1="36.9961" y1="39" x2="-1.19277" y2="8.16145" gradientUnits="userSpaceOnUse">
<stop stop-color="#00C2E0"/>
<stop offset="1" stop-color="#00A3BF" stop-opacity="0.35"/>
</linearGradient>
</defs>
</svg>
