<svg width="48" height="48" viewBox="0 0 48 48" fill="none" xmlns="http://www.w3.org/2000/svg">
<rect x="0.5" y="0.5" width="47" height="47" rx="11.5" fill="white"/>
<rect x="0.5" y="0.5" width="47" height="47" rx="11.5" stroke="url(#paint0_linear_57_380)"/>
<path d="M20.0526 23.6934C20.0526 23.2087 20.1506 22.7287 20.3411 22.2808C20.5315 21.8329 20.8107 21.426 21.1625 21.0832C21.5144 20.7405 21.9322 20.4686 22.3919 20.283C22.8517 20.0975 23.3445 20.0021 23.8421 20.0021C24.3397 20.0021 24.8325 20.0975 25.2923 20.283C25.752 20.4686 26.1698 20.7405 26.5217 21.0832C26.8736 21.426 27.1527 21.8329 27.3431 22.2808C27.5336 22.7287 27.6316 23.2087 27.6316 23.6934C27.6316 24.6724 27.2323 25.6113 26.5217 26.3036C25.811 26.9959 24.8471 27.3848 23.8421 27.3848C22.8371 27.3848 21.8732 26.9959 21.1625 26.3036C20.4519 25.6113 20.0526 24.6724 20.0526 23.6934ZM23.8421 21.2325C23.1721 21.2325 22.5295 21.4918 22.0557 21.9533C21.582 22.4148 21.3158 23.0407 21.3158 23.6934C21.3158 24.3461 21.582 24.972 22.0557 25.4335C22.5295 25.895 23.1721 26.1543 23.8421 26.1543C24.5121 26.1543 25.1547 25.895 25.6285 25.4335C26.1023 24.972 26.3684 24.3461 26.3684 23.6934C26.3684 23.0407 26.1023 22.4148 25.6285 21.9533C25.1547 21.4918 24.5121 21.2325 23.8421 21.2325ZM14.1575 21.9523C14.39 21.7237 14.6667 21.5422 14.9717 21.4184C15.2766 21.2946 15.6037 21.2308 15.9341 21.2308C16.2645 21.2308 16.5916 21.2946 16.8965 21.4184C17.2015 21.5422 17.4782 21.7237 17.7107 21.9523C17.7689 22.0112 17.8385 22.0581 17.9155 22.0905C17.9925 22.1228 18.0754 22.1399 18.1593 22.1407C18.2431 22.1415 18.3263 22.1261 18.404 22.0953C18.4816 22.0644 18.5522 22.0188 18.6116 21.9612C18.671 21.9035 18.718 21.8349 18.7498 21.7593C18.7817 21.6837 18.7978 21.6028 18.7972 21.5211C18.7966 21.4394 18.7793 21.3586 18.7463 21.2835C18.7133 21.2084 18.6653 21.1405 18.6051 21.0836C18.2552 20.7402 17.839 20.4677 17.3804 20.2817C16.9219 20.0957 16.4302 20 15.9335 20C15.4368 20 14.945 20.0957 14.4865 20.2817C14.028 20.4677 13.6118 20.7402 13.2619 21.0836C12.5536 21.777 12.156 22.7153 12.156 23.6934C12.156 24.6715 12.5536 25.6099 13.2619 26.3032C13.6118 26.6466 14.028 26.9191 14.4865 27.1051C14.945 27.2911 15.4368 27.3868 15.9335 27.3868C16.4302 27.3868 16.9219 27.2911 17.3804 27.1051C17.839 26.9191 18.2552 26.6466 18.6051 26.3032C18.6653 26.2464 18.7133 26.1784 18.7463 26.1033C18.7793 26.0282 18.7966 25.9475 18.7972 25.8658C18.7978 25.7841 18.7817 25.7031 18.7498 25.6275C18.718 25.552 18.671 25.4833 18.6116 25.4257C18.5522 25.368 18.4816 25.3224 18.404 25.2916C18.3263 25.2607 18.2431 25.2453 18.1593 25.2461C18.0754 25.2469 17.9925 25.264 17.9155 25.2964C17.8385 25.3287 17.7689 25.3757 17.7107 25.4345C16.7293 26.3943 15.1389 26.3943 14.1575 25.4345C13.6862 24.9713 13.4217 24.3456 13.4217 23.6934C13.4217 23.0413 13.6862 22.4155 14.1575 21.9523ZM10.2632 28C10.5982 28 10.9195 27.8704 11.1563 27.6396C11.3932 27.4089 11.5263 27.0959 11.5263 26.7695C11.5263 26.4432 11.3932 26.1302 11.1563 25.8995C10.9195 25.6687 10.5982 25.5391 10.2632 25.5391C9.92815 25.5391 9.60686 25.6687 9.36997 25.8995C9.13308 26.1302 9 26.4432 9 26.7695C9 27.0959 9.13308 27.4089 9.36997 27.6396C9.60686 27.8704 9.92815 28 10.2632 28ZM31.7368 20.0021C30.1554 20.0021 28.8947 21.2731 28.8947 22.8149V26.7695C28.8947 26.9327 28.9613 27.0892 29.0797 27.2046C29.1982 27.32 29.3588 27.3848 29.5263 27.3848C29.6938 27.3848 29.8545 27.32 29.9729 27.2046C30.0914 27.0892 30.1579 26.9327 30.1579 26.7695V22.8149C30.1579 21.9289 30.8779 21.2325 31.7368 21.2325C32.5958 21.2325 33.3158 21.9289 33.3158 22.8149V26.7695C33.3158 26.9327 33.3823 27.0892 33.5008 27.2046C33.6192 27.32 33.7799 27.3848 33.9474 27.3848C34.1149 27.3848 34.2755 27.32 34.394 27.2046C34.5124 27.0892 34.5789 26.9327 34.5789 26.7695V22.8149C34.5789 21.9289 35.2989 21.2325 36.1579 21.2325C37.0168 21.2325 37.7368 21.9289 37.7368 22.8149V26.7695C37.7368 26.9327 37.8034 27.0892 37.9218 27.2046C38.0403 27.32 38.2009 27.3848 38.3684 27.3848C38.5359 27.3848 38.6966 27.32 38.815 27.2046C38.9335 27.0892 39 26.9327 39 26.7695V22.8149C39 21.2731 37.7394 20.0021 36.1579 20.0021C35.2611 20.0021 34.4653 20.4118 33.9474 21.0479C33.684 20.7223 33.3482 20.4589 32.9654 20.2778C32.5825 20.0967 32.1625 20.0024 31.7368 20.0021Z" fill="url(#paint1_linear_57_380)"/>
<defs>
<linearGradient id="paint0_linear_57_380" x1="-2.12902e-08" y1="15.2523" x2="47.9118" y2="47.7017" gradientUnits="userSpaceOnUse">
<stop stop-color="#F36B23"/>
<stop offset="1" stop-color="#FF8F50"/>
</linearGradient>
<linearGradient id="paint1_linear_57_380" x1="9" y1="22.5421" x2="14.8628" y2="37.4323" gradientUnits="userSpaceOnUse">
<stop stop-color="#F36B23"/>
<stop offset="1" stop-color="#FF8F50"/>
</linearGradient>
</defs>
</svg>
