<svg width="48" height="48" viewBox="0 0 48 48" fill="none" xmlns="http://www.w3.org/2000/svg">
<rect x="0.5" y="0.5" width="47" height="47" rx="11.5" fill="white"/>
<rect x="0.5" y="0.5" width="47" height="47" rx="11.5" stroke="url(#paint0_linear_65_23)"/>
<path d="M35.9098 14.385V33.585C35.9098 34.255 35.7148 34.855 35.3248 35.385C34.9348 35.905 34.4098 36.255 33.7498 36.435L25.1548 38.91C25.0348 38.94 24.8998 38.97 24.7498 39H24.4198C24.0898 39 23.7898 38.955 23.5198 38.865C23.2498 38.775 22.9748 38.655 22.6948 38.505L17.0698 35.325C16.8598 35.205 16.6948 35.05 16.5748 34.86C16.4548 34.67 16.3948 34.455 16.3948 34.215C16.3948 33.855 16.5248 33.55 16.7848 33.3C17.0348 33.05 17.3398 32.925 17.6998 32.925H24.9898V15.21L19.4998 17.16C19.0698 17.32 18.7198 17.6 18.4498 18C18.1798 18.38 18.0448 18.805 18.0448 19.275V29.37C18.0448 29.79 17.9398 30.17 17.7298 30.51C17.5298 30.85 17.2448 31.12 16.8748 31.32L14.2948 32.73C14.0548 32.86 13.8148 32.925 13.5748 32.925C13.1648 32.925 12.8148 32.78 12.5248 32.49C12.2348 32.2 12.0898 31.845 12.0898 31.425V17.205C12.0898 16.685 12.2248 16.2 12.4948 15.75C12.7748 15.25 13.1398 14.87 13.5898 14.61L22.8298 9.36C23.0398 9.24 23.2648 9.15 23.5048 9.09C23.7448 9.03 23.9848 9 24.2248 9C24.3948 9 24.5498 9.015 24.6898 9.045C24.8298 9.065 24.9848 9.1 25.1548 9.15L33.7498 11.535C34.0798 11.625 34.3748 11.76 34.6348 11.94C34.8948 12.12 35.1198 12.335 35.3098 12.585C35.5098 12.845 35.6598 13.125 35.7598 13.425C35.8598 13.735 35.9098 14.055 35.9098 14.385ZM33.9298 33.585V14.385C33.9298 14.155 33.8698 13.955 33.7498 13.785C33.5998 13.595 33.4148 13.48 33.1948 13.44L28.9648 12.27C28.6548 12.18 28.3248 12.09 27.9748 12C27.6448 11.89 27.3198 11.795 26.9998 11.715V36.315L33.1948 34.5C33.4148 34.46 33.5998 34.355 33.7498 34.185C33.8698 34.015 33.9298 33.815 33.9298 33.585Z" fill="url(#paint1_linear_65_23)"/>
<defs>
<linearGradient id="paint0_linear_65_23" x1="-2.12902e-08" y1="15.2523" x2="47.9118" y2="47.7017" gradientUnits="userSpaceOnUse">
<stop stop-color="#F36B23"/>
<stop offset="1" stop-color="#FF8F50"/>
</linearGradient>
<linearGradient id="paint1_linear_65_23" x1="12.0898" y1="18.5327" x2="38.9925" y2="32.9997" gradientUnits="userSpaceOnUse">
<stop stop-color="#F36B23"/>
<stop offset="1" stop-color="#FF8F50"/>
</linearGradient>
</defs>
</svg>
