<svg width="48" height="48" viewBox="0 0 48 48" fill="none" xmlns="http://www.w3.org/2000/svg">
<rect x="0.5" y="0.5" width="47" height="47" rx="11.5" fill="white"/>
<rect x="0.5" y="0.5" width="47" height="47" rx="11.5" stroke="url(#paint0_linear_57_306)"/>
<path d="M24 16.7027H16.7027M16.7027 16.7027H14.2346C12.9259 16.7027 11.5865 17.0076 10.7805 18.0389C9.92108 19.14 9 21.0146 9 24C9 26.9838 9.92108 28.86 10.7805 29.9611C11.5865 30.9924 12.9259 31.2973 14.2346 31.2973H16.7027M16.7027 16.7027V14.2346C16.7027 12.9259 17.0076 11.5865 18.0389 10.7805C19.14 9.92108 21.0146 9 24 9C26.9838 9 28.86 9.92108 29.9611 10.7805C30.9924 11.5865 31.2973 12.9259 31.2973 14.2346V16.7027M24 31.2973H31.2973M31.2973 31.2973H33.7638C35.0724 31.2973 36.4135 30.9924 37.2178 29.9611C38.0789 28.86 39 26.9854 39 24C39 21.0162 38.0789 19.14 37.2195 18.0389C36.4135 17.0076 35.0724 16.7027 33.7654 16.7027H31.2973M31.2973 31.2973V33.7638C31.2973 35.0724 30.9924 36.4135 29.9611 37.2178C28.86 38.0789 26.9854 39 24 39C21.0162 39 19.14 38.0789 18.0389 37.2195C17.0076 36.4135 16.7027 35.0724 16.7027 33.7654V31.2973M31.2973 16.7027V20.7568C31.2973 21.6169 30.9556 22.4418 30.3474 23.0501C29.7391 23.6583 28.9142 24 28.0541 24H19.9459C19.0858 24 18.2609 24.3417 17.6526 24.9499C17.0444 25.5582 16.7027 26.3831 16.7027 27.2432V31.2973" stroke="black" stroke-width="1.5" stroke-linecap="round" stroke-linejoin="round"/>
<path d="M28.8645 34.5405C28.8645 34.863 28.7364 35.1724 28.5083 35.4005C28.2802 35.6285 27.9708 35.7567 27.6483 35.7567C27.3257 35.7567 27.0164 35.6285 26.7883 35.4005C26.5602 35.1724 26.4321 34.863 26.4321 34.5405C26.4321 34.2179 26.5602 33.9086 26.7883 33.6805C27.0164 33.4524 27.3257 33.3242 27.6483 33.3242C27.9708 33.3242 28.2802 33.4524 28.5083 33.6805C28.7364 33.9086 28.8645 34.2179 28.8645 34.5405ZM19.1348 13.4594C19.1348 13.1368 19.2629 12.8275 19.491 12.5994C19.7191 12.3713 20.0284 12.2432 20.351 12.2432C20.6735 12.2432 20.9829 12.3713 21.211 12.5994C21.4391 12.8275 21.5672 13.1368 21.5672 13.4594C21.5672 13.7819 21.4391 14.0913 21.211 14.3194C20.9829 14.5475 20.6735 14.6756 20.351 14.6756C20.0284 14.6756 19.7191 14.5475 19.491 14.3194C19.2629 14.0913 19.1348 13.7819 19.1348 13.4594Z" fill="black"/>
<path d="M24 16.7027H16.7027M16.7027 16.7027H14.2346C12.9259 16.7027 11.5865 17.0076 10.7805 18.0389C9.92108 19.14 9 21.0146 9 24C9 26.9838 9.92108 28.86 10.7805 29.9611C11.5865 30.9924 12.9259 31.2973 14.2346 31.2973H16.7027M16.7027 16.7027V14.2346C16.7027 12.9259 17.0076 11.5865 18.0389 10.7805C19.14 9.92108 21.0146 9 24 9C26.9838 9 28.86 9.92108 29.9611 10.7805C30.9924 11.5865 31.2973 12.9259 31.2973 14.2346V16.7027M24 31.2973H31.2973M31.2973 31.2973H33.7638C35.0724 31.2973 36.4135 30.9924 37.2178 29.9611C38.0789 28.86 39 26.9854 39 24C39 21.0162 38.0789 19.14 37.2195 18.0389C36.4135 17.0076 35.0724 16.7027 33.7654 16.7027H31.2973M31.2973 31.2973V33.7638C31.2973 35.0724 30.9924 36.4135 29.9611 37.2178C28.86 38.0789 26.9854 39 24 39C21.0162 39 19.14 38.0789 18.0389 37.2195C17.0076 36.4135 16.7027 35.0724 16.7027 33.7654V31.2973M31.2973 16.7027V20.7568C31.2973 21.6169 30.9556 22.4418 30.3474 23.0501C29.7391 23.6583 28.9142 24 28.0541 24H19.9459C19.0858 24 18.2609 24.3417 17.6526 24.9499C17.0444 25.5582 16.7027 26.3831 16.7027 27.2432V31.2973" stroke="url(#paint1_linear_57_306)" stroke-width="1.5" stroke-linecap="round" stroke-linejoin="round"/>
<path d="M27.6484 33.8242C27.8383 33.8243 28.02 33.9 28.1543 34.0342C28.2885 34.1684 28.3641 34.3502 28.3643 34.54C28.3643 34.73 28.2886 34.9126 28.1543 35.0469C28.02 35.181 27.8382 35.2568 27.6484 35.2568C27.4585 35.2568 27.2759 35.1812 27.1416 35.0469C27.0074 34.9126 26.9316 34.7299 26.9316 34.54C26.9318 34.3503 27.0075 34.1684 27.1416 34.0342C27.2759 33.8999 27.4585 33.8242 27.6484 33.8242ZM20.3506 12.7432C20.5405 12.7432 20.7231 12.8188 20.8574 12.9531C20.9916 13.0873 21.0673 13.2692 21.0674 13.459C21.0674 13.6489 20.9917 13.8315 20.8574 13.9658C20.7231 14.1001 20.5405 14.1758 20.3506 14.1758C20.1608 14.1757 19.9789 14.1 19.8447 13.9658C19.7104 13.8315 19.6348 13.6489 19.6348 13.459C19.6349 13.2692 19.7105 13.0873 19.8447 12.9531C19.9789 12.8189 20.1608 12.7433 20.3506 12.7432Z" stroke="url(#paint2_linear_57_306)"/>
<defs>
<linearGradient id="paint0_linear_57_306" x1="0" y1="0" x2="48" y2="48" gradientUnits="userSpaceOnUse">
<stop stop-color="#0054AA"/>
<stop offset="0.5" stop-color="#0066CC"/>
<stop offset="1" stop-color="#0080FF"/>
</linearGradient>
<linearGradient id="paint1_linear_57_306" x1="9" y1="9" x2="39" y2="39" gradientUnits="userSpaceOnUse">
<stop stop-color="#0054AA"/>
<stop offset="0.5" stop-color="#0066CC"/>
<stop offset="1" stop-color="#0080FF"/>
</linearGradient>
<linearGradient id="paint2_linear_57_306" x1="19.1348" y1="12.2432" x2="35.7494" y2="19.1182" gradientUnits="userSpaceOnUse">
<stop stop-color="#0054AA"/>
<stop offset="0.5" stop-color="#0066CC"/>
<stop offset="1" stop-color="#0080FF"/>
</linearGradient>
</defs>
</svg>
