<svg width="48" height="48" viewBox="0 0 48 48" fill="none" xmlns="http://www.w3.org/2000/svg">
<rect x="0.5" y="0.5" width="47" height="47" rx="11.5" fill="white"/>
<rect x="0.5" y="0.5" width="47" height="47" rx="11.5" stroke="url(#paint0_linear_57_318)"/>
<path d="M19.5714 34.7143V39M13.1429 9H26C26.5683 9 27.1134 9.22576 27.5152 9.62763C27.9171 10.0295 28.1429 10.5745 28.1429 11.1429V38.7321C28.1429 38.8032 28.1146 38.8713 28.0644 38.9215C28.0142 38.9718 27.946 39 27.875 39H11V11.1429C11 10.5745 11.2258 10.0295 11.6276 9.62763C12.0295 9.22576 12.5745 9 13.1429 9ZM29.2143 19.7143H36.7143C37.2826 19.7143 37.8276 19.9401 38.2295 20.3419C38.6314 20.7438 38.8571 21.2888 38.8571 21.8571V39H28.1429V20.7857C28.1429 20.5016 28.2557 20.229 28.4567 20.0281C28.6576 19.8272 28.9301 19.7143 29.2143 19.7143Z" stroke="url(#paint1_linear_57_318)" stroke-linecap="round" stroke-linejoin="round"/>
<path d="M14.353 35.7767C14.1311 35.8058 13.9056 35.7646 13.7083 35.6589C13.511 35.5533 13.3518 35.3886 13.2529 35.1878C13.154 34.9871 13.1204 34.7604 13.1569 34.5396C13.1934 34.3188 13.2982 34.115 13.4564 33.9567C13.6146 33.7985 13.8185 33.6938 14.0393 33.6573C14.26 33.6208 14.4867 33.6543 14.6875 33.7532C14.8882 33.8521 15.053 34.0114 15.1586 34.2087C15.2642 34.406 15.3054 34.6314 15.2764 34.8533C15.2458 35.0875 15.1386 35.305 14.9716 35.472C14.8046 35.639 14.5871 35.7461 14.353 35.7767ZM14.353 30.4196C14.1311 30.4486 13.9056 30.4074 13.7083 30.3018C13.511 30.1962 13.3518 30.0314 13.2529 29.8307C13.154 29.6299 13.1204 29.4032 13.1569 29.1825C13.1934 28.9617 13.2982 28.7578 13.4564 28.5996C13.6146 28.4414 13.8185 28.3366 14.0393 28.3001C14.26 28.2636 14.4867 28.2972 14.6875 28.3961C14.8882 28.495 15.053 28.6542 15.1586 28.8515C15.2642 29.0488 15.3054 29.2743 15.2764 29.4962C15.2458 29.7303 15.1386 29.9478 14.9716 30.1148C14.8046 30.2818 14.5871 30.389 14.353 30.4196ZM14.353 25.0625C14.1311 25.0915 13.9056 25.0503 13.7083 24.9447C13.511 24.839 13.3518 24.6743 13.2529 24.4735C13.154 24.2728 13.1204 24.0461 13.1569 23.8253C13.1934 23.6045 13.2982 23.4007 13.4564 23.2425C13.6146 23.0842 13.8185 22.9795 14.0393 22.943C14.26 22.9065 14.4867 22.94 14.6875 23.0389C14.8882 23.1378 15.053 23.2971 15.1586 23.4944C15.2642 23.6917 15.3054 23.9171 15.2764 24.139C15.2458 24.3732 15.1386 24.5907 14.9716 24.7577C14.8046 24.9247 14.5871 25.0318 14.353 25.0625ZM14.353 19.7053C14.1311 19.7343 13.9056 19.6931 13.7083 19.5875C13.511 19.4819 13.3518 19.3172 13.2529 19.1164C13.154 18.9156 13.1204 18.689 13.1569 18.4682C13.1934 18.2474 13.2982 18.0436 13.4564 17.8853C13.6146 17.7271 13.8185 17.6223 14.0393 17.5858C14.26 17.5493 14.4867 17.5829 14.6875 17.6818C14.8882 17.7807 15.053 17.94 15.1586 18.1373C15.2642 18.3346 15.3054 18.56 15.2764 18.7819C15.2458 19.016 15.1386 19.2335 14.9716 19.4005C14.8046 19.5675 14.5871 19.6747 14.353 19.7053ZM14.353 14.3482C14.1311 14.3772 13.9056 14.336 13.7083 14.2304C13.511 14.1248 13.3518 13.96 13.2529 13.7593C13.154 13.5585 13.1204 13.3318 13.1569 13.111C13.1934 12.8902 13.2982 12.6864 13.4564 12.5282C13.6146 12.3699 13.8185 12.2652 14.0393 12.2287C14.26 12.1922 14.4867 12.2258 14.6875 12.3246C14.8882 12.4235 15.053 12.5828 15.1586 12.7801C15.2642 12.9774 15.3054 13.2028 15.2764 13.4247C15.2458 13.6589 15.1386 13.8764 14.9716 14.0434C14.8046 14.2104 14.5871 14.3175 14.353 14.3482ZM19.7101 30.4196C19.4882 30.4486 19.2628 30.4074 19.0655 30.3018C18.8682 30.1962 18.7089 30.0314 18.61 29.8307C18.5111 29.6299 18.4776 29.4032 18.5141 29.1825C18.5506 28.9617 18.6553 28.7578 18.8135 28.5996C18.9718 28.4414 19.1756 28.3366 19.3964 28.3001C19.6172 28.2636 19.8439 28.2972 20.0446 28.3961C20.2454 28.495 20.4101 28.6542 20.5157 28.8515C20.6214 29.0488 20.6626 29.2743 20.6335 29.4962C20.6029 29.7303 20.4958 29.9478 20.3288 30.1148C20.1618 30.2818 19.9443 30.389 19.7101 30.4196ZM19.7101 25.0625C19.4882 25.0915 19.2628 25.0503 19.0655 24.9447C18.8682 24.839 18.7089 24.6743 18.61 24.4735C18.5111 24.2728 18.4776 24.0461 18.5141 23.8253C18.5506 23.6045 18.6553 23.4007 18.8135 23.2425C18.9718 23.0842 19.1756 22.9795 19.3964 22.943C19.6172 22.9065 19.8439 22.94 20.0446 23.0389C20.2454 23.1378 20.4101 23.2971 20.5157 23.4944C20.6214 23.6917 20.6626 23.9171 20.6335 24.139C20.6029 24.3732 20.4958 24.5907 20.3288 24.7577C20.1618 24.9247 19.9443 25.0318 19.7101 25.0625ZM19.7101 19.7053C19.4882 19.7343 19.2628 19.6931 19.0655 19.5875C18.8682 19.4819 18.7089 19.3172 18.61 19.1164C18.5111 18.9156 18.4776 18.689 18.5141 18.4682C18.5506 18.2474 18.6553 18.0436 18.8135 17.8853C18.9718 17.7271 19.1756 17.6223 19.3964 17.5858C19.6172 17.5493 19.8439 17.5829 20.0446 17.6818C20.2454 17.7807 20.4101 17.94 20.5157 18.1373C20.6214 18.3346 20.6626 18.56 20.6335 18.7819C20.6029 19.016 20.4958 19.2335 20.3288 19.4005C20.1618 19.5675 19.9443 19.6747 19.7101 19.7053ZM19.7101 14.3482C19.4882 14.3772 19.2628 14.336 19.0655 14.2304C18.8682 14.1248 18.7089 13.96 18.61 13.7593C18.5111 13.5585 18.4776 13.3318 18.5141 13.111C18.5506 12.8902 18.6553 12.6864 18.8135 12.5282C18.9718 12.3699 19.1756 12.2652 19.3964 12.2287C19.6172 12.1922 19.8439 12.2258 20.0446 12.3246C20.2454 12.4235 20.4101 12.5828 20.5157 12.7801C20.6214 12.9774 20.6626 13.2028 20.6335 13.4247C20.6029 13.6589 20.4958 13.8764 20.3288 14.0434C20.1618 14.2104 19.9443 14.3175 19.7101 14.3482ZM25.0672 35.7767C24.8453 35.8058 24.6199 35.7646 24.4226 35.6589C24.2253 35.5533 24.0661 35.3886 23.9672 35.1878C23.8683 34.9871 23.8347 34.7604 23.8712 34.5396C23.9077 34.3188 24.0124 34.115 24.1707 33.9567C24.3289 33.7985 24.5327 33.6938 24.7535 33.6573C24.9743 33.6208 25.201 33.6543 25.4018 33.7532C25.6025 33.8521 25.7673 34.0114 25.8729 34.2087C25.9785 34.406 26.0197 34.6314 25.9907 34.8533C25.96 35.0875 25.8529 35.305 25.6859 35.472C25.5189 35.639 25.3014 35.7461 25.0672 35.7767ZM25.0672 30.4196C24.8453 30.4486 24.6199 30.4074 24.4226 30.3018C24.2253 30.1962 24.0661 30.0314 23.9672 29.8307C23.8683 29.6299 23.8347 29.4032 23.8712 29.1825C23.9077 28.9617 24.0124 28.7578 24.1707 28.5996C24.3289 28.4414 24.5327 28.3366 24.7535 28.3001C24.9743 28.2636 25.201 28.2972 25.4018 28.3961C25.6025 28.495 25.7673 28.6542 25.8729 28.8515C25.9785 29.0488 26.0197 29.2743 25.9907 29.4962C25.96 29.7303 25.8529 29.9478 25.6859 30.1148C25.5189 30.2818 25.3014 30.389 25.0672 30.4196ZM25.0672 25.0625C24.8453 25.0915 24.6199 25.0503 24.4226 24.9447C24.2253 24.839 24.0661 24.6743 23.9672 24.4735C23.8683 24.2728 23.8347 24.0461 23.8712 23.8253C23.9077 23.6045 24.0124 23.4007 24.1707 23.2425C24.3289 23.0842 24.5327 22.9795 24.7535 22.943C24.9743 22.9065 25.201 22.94 25.4018 23.0389C25.6025 23.1378 25.7673 23.2971 25.8729 23.4944C25.9785 23.6917 26.0197 23.9171 25.9907 24.139C25.96 24.3732 25.8529 24.5907 25.6859 24.7577C25.5189 24.9247 25.3014 25.0318 25.0672 25.0625Z" fill="url(#paint2_linear_57_318)"/>
<path d="M25.6864 19.4015C26.1035 18.9844 26.1018 18.3064 25.6826 17.8872C25.2634 17.468 24.5854 17.4663 24.1683 17.8834C23.7512 18.3005 23.7529 18.9785 24.1721 19.3977C24.5913 19.8169 25.2693 19.8186 25.6864 19.4015Z" fill="url(#paint3_linear_57_318)"/>
<path d="M25.0678 14.3482C24.8459 14.3772 24.6205 14.336 24.4232 14.2304C24.2259 14.1248 24.0666 13.96 23.9677 13.7593C23.8688 13.5585 23.8353 13.3318 23.8718 13.111C23.9083 12.8902 24.013 12.6864 24.1712 12.5282C24.3295 12.3699 24.5333 12.2652 24.7541 12.2287C24.9749 12.1922 25.2016 12.2258 25.4023 12.3246C25.6031 12.4235 25.7678 12.5828 25.8734 12.7801C25.9791 12.9774 26.0203 13.2028 25.9912 13.4247C25.9606 13.6589 25.8535 13.8764 25.6865 14.0434C25.5195 14.2104 25.302 14.3175 25.0678 14.3482ZM34.5714 33.6426C34.3595 33.6426 34.1523 33.7054 33.9761 33.8232C33.7999 33.9409 33.6626 34.1082 33.5815 34.304C33.5004 34.4998 33.4792 34.7152 33.5205 34.923C33.5619 35.1309 33.6639 35.3218 33.8138 35.4716C33.9636 35.6215 34.1545 35.7235 34.3623 35.7649C34.5702 35.8062 34.7856 35.785 34.9814 35.7039C35.1772 35.6228 35.3445 35.4855 35.4622 35.3093C35.58 35.1331 35.6428 34.9259 35.6428 34.714C35.6428 34.4299 35.5299 34.1573 35.329 33.9564C35.128 33.7555 34.8555 33.6426 34.5714 33.6426ZM34.5714 28.2854C34.3595 28.2854 34.1523 28.3483 33.9761 28.466C33.7999 28.5837 33.6626 28.7511 33.5815 28.9469C33.5004 29.1426 33.4792 29.3581 33.5205 29.5659C33.5619 29.7737 33.6639 29.9646 33.8138 30.1145C33.9636 30.2643 34.1545 30.3664 34.3623 30.4077C34.5702 30.4491 34.7856 30.4278 34.9814 30.3467C35.1772 30.2656 35.3445 30.1283 35.4622 29.9521C35.58 29.7759 35.6428 29.5688 35.6428 29.3569C35.6428 29.0727 35.5299 28.8002 35.329 28.5993C35.128 28.3983 34.8555 28.2854 34.5714 28.2854ZM34.5714 22.9283C34.3595 22.9283 34.1523 22.9911 33.9761 23.1089C33.7999 23.2266 33.6626 23.3939 33.5815 23.5897C33.5004 23.7855 33.4792 24.0009 33.5205 24.2088C33.5619 24.4166 33.6639 24.6075 33.8138 24.7573C33.9636 24.9072 34.1545 25.0092 34.3623 25.0506C34.5702 25.0919 34.7856 25.0707 34.9814 24.9896C35.1772 24.9085 35.3445 24.7712 35.4622 24.595C35.58 24.4188 35.6428 24.2116 35.6428 23.9997C35.6428 23.7156 35.5299 23.443 35.329 23.2421C35.128 23.0412 34.8555 22.9283 34.5714 22.9283ZM30.2857 33.6426C30.0737 33.6426 29.8666 33.7054 29.6904 33.8232C29.5142 33.9409 29.3769 34.1082 29.2958 34.304C29.2147 34.4998 29.1935 34.7152 29.2348 34.923C29.2762 35.1309 29.3782 35.3218 29.528 35.4716C29.6779 35.6215 29.8688 35.7235 30.0766 35.7649C30.2845 35.8062 30.4999 35.785 30.6957 35.7039C30.8914 35.6228 31.0588 35.4855 31.1765 35.3093C31.2942 35.1331 31.3571 34.9259 31.3571 34.714C31.3571 34.4299 31.2442 34.1573 31.0433 33.9564C30.8423 33.7555 30.5698 33.6426 30.2857 33.6426ZM30.2857 28.2854C30.0737 28.2854 29.8666 28.3483 29.6904 28.466C29.5142 28.5837 29.3769 28.7511 29.2958 28.9469C29.2147 29.1426 29.1935 29.3581 29.2348 29.5659C29.2762 29.7737 29.3782 29.9646 29.528 30.1145C29.6779 30.2643 29.8688 30.3664 30.0766 30.4077C30.2845 30.4491 30.4999 30.4278 30.6957 30.3467C30.8914 30.2656 31.0588 30.1283 31.1765 29.9521C31.2942 29.7759 31.3571 29.5688 31.3571 29.3569C31.3571 29.0727 31.2442 28.8002 31.0433 28.5993C30.8423 28.3983 30.5698 28.2854 30.2857 28.2854ZM30.2857 22.9283C30.0737 22.9283 29.8666 22.9911 29.6904 23.1089C29.5142 23.2266 29.3769 23.3939 29.2958 23.5897C29.2147 23.7855 29.1935 24.0009 29.2348 24.2088C29.2762 24.4166 29.3782 24.6075 29.528 24.7573C29.6779 24.9072 29.8688 25.0092 30.0766 25.0506C30.2845 25.0919 30.4999 25.0707 30.6957 24.9896C30.8914 24.9085 31.0588 24.7712 31.1765 24.595C31.2942 24.4188 31.3571 24.2116 31.3571 23.9997C31.3571 23.7156 31.2442 23.443 31.0433 23.2421C30.8423 23.0412 30.5698 22.9283 30.2857 22.9283Z" fill="url(#paint4_linear_57_318)"/>
<defs>
<linearGradient id="paint0_linear_57_318" x1="0" y1="0" x2="48" y2="48" gradientUnits="userSpaceOnUse">
<stop stop-color="#0054AA"/>
<stop offset="0.5" stop-color="#0066CC"/>
<stop offset="1" stop-color="#0080FF"/>
</linearGradient>
<linearGradient id="paint1_linear_57_318" x1="11" y1="9" x2="40.9178" y2="36.7808" gradientUnits="userSpaceOnUse">
<stop stop-color="#0054AA"/>
<stop offset="0.5" stop-color="#0066CC"/>
<stop offset="1" stop-color="#0080FF"/>
</linearGradient>
<linearGradient id="paint2_linear_57_318" x1="13.1426" y1="12.2144" x2="32.9606" y2="23.0242" gradientUnits="userSpaceOnUse">
<stop stop-color="#0054AA"/>
<stop offset="0.5" stop-color="#0066CC"/>
<stop offset="1" stop-color="#0080FF"/>
</linearGradient>
<linearGradient id="paint3_linear_57_318" x1="23.4131" y1="18.6387" x2="26.4416" y2="18.6311" gradientUnits="userSpaceOnUse">
<stop stop-color="#0054AA"/>
<stop offset="0.5" stop-color="#0066CC"/>
<stop offset="1" stop-color="#0080FF"/>
</linearGradient>
<linearGradient id="paint4_linear_57_318" x1="23.8574" y1="12.2144" x2="42.7141" y2="21.6426" gradientUnits="userSpaceOnUse">
<stop stop-color="#0054AA"/>
<stop offset="0.5" stop-color="#0066CC"/>
<stop offset="1" stop-color="#0080FF"/>
</linearGradient>
</defs>
</svg>
