<svg width="48" height="48" viewBox="0 0 48 48" fill="none" xmlns="http://www.w3.org/2000/svg">
<rect x="0.5" y="0.5" width="47" height="47" rx="11.5" fill="white"/>
<rect x="0.5" y="0.5" width="47" height="47" rx="11.5" stroke="url(#paint0_linear_65_129)"/>
<path d="M24 11.1411C16.8992 11.1411 11.1411 16.8992 11.1411 24C11.1411 31.1008 16.8992 36.8589 24 36.8589C31.1008 36.8589 36.8589 31.1008 36.8589 24C36.8589 16.8992 31.1008 11.1411 24 11.1411ZM18.1089 19.1794C18.1089 15.9315 20.752 13.2883 24 13.2883C27.248 13.2883 29.8911 15.9315 29.8911 19.1794V20.7883C29.8911 21.0907 29.6552 21.3266 29.3528 21.3266H28.2823C27.9798 21.3266 27.7439 21.0907 27.7439 20.7883V19.1794C27.7439 14.2137 20.244 14.2137 20.244 19.1794V20.7883C20.244 21.0907 20.0081 21.3266 19.7056 21.3266H18.6351C18.3327 21.3266 18.0968 21.0907 18.0968 20.7883V19.1794H18.1089ZM32.5706 31.5C32.5706 32.0867 32.0867 32.5706 31.5 32.5706H16.5C15.9133 32.5706 15.4294 32.0867 15.4294 31.5V22.9294C15.4294 22.3427 15.9133 21.8589 16.5 21.8589H31.5C32.0867 21.8589 32.5706 22.3427 32.5706 22.9294V31.5ZM17.5706 23.1956V31.2339C17.5706 31.3851 17.4556 31.5 17.3044 31.5H16.7661C16.6149 31.5 16.5 31.3851 16.5 31.2339V23.1956C16.5 23.0444 16.6149 22.9294 16.7661 22.9294H17.3044C17.4556 22.9294 17.5706 23.0444 17.5706 23.1956ZM26.1411 26.1411C26.1411 26.9274 25.7056 27.6169 25.0706 27.9798V29.8911C25.0706 30.1935 24.8347 30.4294 24.5323 30.4294H23.4617C23.1593 30.4294 22.9234 30.1935 22.9234 29.8911V27.9798C22.2883 27.6109 21.8528 26.9274 21.8528 26.1411C21.8528 24.9496 22.8085 24 23.994 24C25.1794 24 26.1411 24.9556 26.1411 26.1411ZM24 9C15.7137 9 9 15.7137 9 24C9 32.2863 15.7137 39 24 39C32.2863 39 39 32.2863 39 24C39 15.7137 32.2863 9 24 9ZM24 37.9294C16.3185 37.9294 10.0706 31.6815 10.0706 24C10.0706 16.3185 16.3185 10.0706 24 10.0706C31.6815 10.0706 37.9294 16.3185 37.9294 24C37.9294 31.6815 31.6815 37.9294 24 37.9294Z" fill="url(#paint1_linear_65_129)"/>
<defs>
<linearGradient id="paint0_linear_65_129" x1="0" y1="0" x2="48" y2="48" gradientUnits="userSpaceOnUse">
<stop stop-color="#0054AA"/>
<stop offset="0.5" stop-color="#0066CC"/>
<stop offset="1" stop-color="#0080FF"/>
</linearGradient>
<linearGradient id="paint1_linear_65_129" x1="9" y1="9" x2="39" y2="39" gradientUnits="userSpaceOnUse">
<stop stop-color="#0054AA"/>
<stop offset="0.5" stop-color="#0066CC"/>
<stop offset="1" stop-color="#0080FF"/>
</linearGradient>
</defs>
</svg>
