<svg width="48" height="48" viewBox="0 0 48 48" fill="none" xmlns="http://www.w3.org/2000/svg">
<rect x="0.5" y="0.5" width="47" height="47" rx="11.5" fill="white"/>
<rect x="0.5" y="0.5" width="47" height="47" rx="11.5" stroke="url(#paint0_linear_57_271)"/>
<path d="M24.8153 13C24.3499 13.7863 24.1438 15.6096 24.1956 16.9032L24.1894 16.9082C24.2339 18.0759 24.3931 19.1499 24.6486 20.1362C20.8269 21.083 16.6669 23.5864 14.3387 26.0046C13.25 24.5357 12.8179 23.3284 12.6896 22.4149C12.5278 21.2595 12.8031 20.2004 13.487 19.3511C14.5572 18.0216 16.0768 17.9278 17.6408 18.1907C17.61 18.4376 17.6421 18.6734 17.7408 18.8203C18.1543 19.4301 20.3763 19.6449 21.7033 19.0536C20.7244 17.6809 18.7407 17.0119 18.1926 17.2797C18.0095 17.3776 17.8641 17.5335 17.7791 17.7229C17.2384 17.6266 16.7014 17.5538 16.3101 17.5575C14.9313 17.5674 13.8771 18.0488 13.0883 19.0302C12.3131 19.993 11.9995 21.1867 12.1822 22.4865C12.355 23.716 12.9636 25.0233 13.9845 26.3799C13.8149 26.5618 13.6512 26.7412 13.4932 26.9181C11.0058 29.7005 9.1875 32.6841 9.1875 33.1803V33.4359H12.4686L12.4118 33.1322C12.2266 32.1533 12.597 30.9288 13.3537 30.014C13.8302 29.44 14.6177 28.7846 15.8559 28.4821C16.9557 29.5561 18.358 30.6967 19.9183 31.7966H22.3576V31.5398C22.3567 31.3965 22.3191 31.2558 22.2484 31.1311C22.1778 31.0064 22.0764 30.9019 21.9539 30.8275C21.5688 30.5757 20.9738 30.5411 20.4269 30.7275C19.9068 30.1457 19.6151 29.3734 19.5517 28.4105C24.8437 28.8796 29.906 31.0152 35.6177 34H38.7606L38.8013 33.7939C38.8606 33.5013 38.7001 33.1075 38.3742 32.7434C37.8113 32.1138 36.709 31.8151 35.7881 31.8373C35.1536 31.0818 31.6626 27.4045 31.459 27.1897C32.788 26.2567 33.9111 25.0605 34.7586 23.6753H36.4719V23.3074H34.9746C35.0704 23.1372 35.1622 22.9648 35.2499 22.7902H36.4707V22.4211H35.4276C36.2028 20.7435 36.6312 18.8191 36.5904 16.7119L36.5942 16.7144C36.5917 16.1367 36.4127 13.6962 36.0819 13.0247C35.1857 13.3654 33.555 14.469 33.1859 15.5972C31.3568 15.3378 29.4987 15.3611 27.6767 15.6664C27.3841 14.4517 25.9201 13.5234 24.8153 13ZM25.0177 13.7123C25.2782 15.1294 25.7498 16.0194 26.7706 16.4564C27.6767 16.1972 28.721 16.0367 29.7925 15.9774L30.6776 17.9167L31.2454 15.9601C32.3268 15.9959 33.3884 16.1354 34.3129 16.391C35.2536 15.7071 35.6177 14.6628 35.8165 13.7518C36.0658 14.8134 36.0362 17.1057 36.0387 17.1057C36.0556 17.9282 35.9902 18.7503 35.8436 19.5597L34.8265 19.9918L35.7227 20.1276C35.6533 20.4246 35.5718 20.7186 35.4782 21.0089L34.6104 21.262L35.3017 21.5101C35.1849 21.8228 35.0557 22.1265 34.9141 22.4211H33.4822V22.7902H34.7265C34.6332 22.9652 34.5352 23.1377 34.4327 23.3074H33.4822V23.6753H34.2018C33.2841 25.0744 32.0485 26.2367 30.5961 27.0675C28.9494 26.2478 27.7063 25.0504 26.7953 23.6753H27.3459V23.3074H26.5608C26.4591 23.1376 26.3619 22.9652 26.2694 22.7902H27.3459V22.4211H26.0793C25.8635 21.9826 25.6739 21.5317 25.5115 21.0707L26.1559 20.8892L25.3424 20.5645C25.2601 20.2996 25.186 20.0337 25.1202 19.7671L26.3731 19.6819L24.9412 18.9228C24.5931 16.9934 24.6635 15.1207 25.0177 13.7123ZM28.6543 17.3785C27.5557 17.3785 27.1237 18.5006 27.1051 18.5487L27.4162 18.6648C27.431 18.624 27.789 17.7106 28.6543 17.7106C28.8444 17.7106 28.9778 17.7871 29.0741 17.9513C29.2987 18.3389 29.2617 19.103 29.0741 19.9017H27.5594V20.2337H28.9901C28.8453 20.7598 28.6399 21.2673 28.3778 21.7459L28.2988 21.8841L30.1961 23.0778L29.1284 23.7814L29.3111 24.058L30.5047 23.2716L31.7922 24.1123L31.9688 23.8308L30.7751 23.0926L32.6489 21.8755V21.8743C32.2564 21.2941 32.1305 20.7978 32.2959 20.2337H32.4292L33.8698 20.2325L33.8722 19.9017H32.4218C32.6884 19.2721 33.0637 18.7067 34.3993 18.7067V18.3734C33.1662 18.3734 32.4292 18.8635 32.0749 19.9017H29.416C29.6011 19.0721 29.6345 18.2562 29.3592 17.7846C29.2909 17.6584 29.189 17.5536 29.0649 17.4817C28.9407 17.4098 28.799 17.3736 28.6556 17.3773L28.6543 17.3785ZM29.3333 20.2337H31.9577C31.8404 20.609 31.8873 21.1756 32.1774 21.6619H28.7988C29.0037 21.2496 29.1938 20.7485 29.3333 20.2337ZM24.7869 20.63C24.9795 21.2645 25.2107 21.8615 25.4806 22.4211H24.3573V22.7902H25.6658C25.7588 22.9655 25.8547 23.1379 25.9534 23.3074H24.3586V23.6753H26.183C27.3064 25.4232 28.8247 26.7601 30.5455 27.7711C30.7362 27.6609 30.9239 27.5457 31.1084 27.4255L31.5552 27.9069L30.8022 29.0648L32.086 28.4797L32.8341 29.2845L31.5762 30.2424L33.3081 29.7943L35.6597 32.3249L35.8572 32.3076C37.1003 32.2014 37.8076 32.8754 37.9928 33.0853C38.131 33.2384 38.2137 33.3778 38.2582 33.4877H35.7449C29.9801 30.4794 24.9177 28.3587 19.5406 27.8958C19.5521 27.1469 19.6854 26.3001 19.9406 25.3553L19.4468 25.222C19.1843 26.1923 19.0452 27.0704 19.0296 27.8563C18.4699 27.8192 17.9058 27.8003 17.3372 27.7995C16.8557 27.8011 16.4146 27.8423 16.0139 27.9229C15.5386 27.4498 15.0895 26.9512 14.6683 26.4293C15.3423 25.7257 16.1373 25.043 17.0051 24.4011L18.1988 25.2257L17.8087 23.8333C18.1766 23.5864 18.5527 23.3478 18.937 23.1173L20.7071 24.0185L19.8764 22.5841C20.1208 22.4524 20.3668 22.3248 20.6146 22.2014L23.092 23.8629L22.2773 21.4533C23.0936 21.1194 23.9314 20.8443 24.7869 20.63ZM29.0975 21.994H31.8379L30.4998 22.8766L29.0975 21.994ZM14.3141 26.8021C14.6515 27.2185 15.0259 27.6386 15.4374 28.0624C14.468 28.3447 13.6052 28.9104 12.9599 29.6869C12.1834 30.6251 11.7724 31.862 11.8662 32.9236H9.79854C10.2145 32.0249 11.8687 29.4265 14.3141 26.8021Z" fill="url(#paint1_linear_57_271)"/>
<defs>
<linearGradient id="paint0_linear_57_271" x1="47.9927" y1="48" x2="-14.3551" y2="-10.0935" gradientUnits="userSpaceOnUse">
<stop stop-color="#00C2E0"/>
<stop offset="1" stop-color="#00A3BF" stop-opacity="0.35"/>
</linearGradient>
<linearGradient id="paint1_linear_57_271" x1="38.8089" y1="34" x2="12.455" y2="-0.641988" gradientUnits="userSpaceOnUse">
<stop stop-color="#00C2E0"/>
<stop offset="1" stop-color="#00A3BF" stop-opacity="0.35"/>
</linearGradient>
</defs>
</svg>
