<svg width="48" height="48" viewBox="0 0 48 48" fill="none" xmlns="http://www.w3.org/2000/svg">
<rect x="0.5" y="0.5" width="47" height="47" rx="11.5" fill="white"/>
<rect x="0.5" y="0.5" width="47" height="47" rx="11.5" stroke="url(#paint0_linear_65_9)"/>
<path d="M13.5998 12H34.3998C35.6728 12 36.8937 12.5057 37.7939 13.4059C38.6941 14.3061 39.1998 15.527 39.1998 16.8V31.2C39.1998 32.473 38.6941 33.6939 37.7939 34.5941C36.8937 35.4943 35.6728 36 34.3998 36H13.5998C12.3268 36 11.1059 35.4943 10.2057 34.5941C9.30552 33.6939 8.7998 32.473 8.7998 31.2V16.8C8.7998 15.527 9.30552 14.3061 10.2057 13.4059C11.1059 12.5057 12.3268 12 13.5998 12ZM13.5998 13.6C12.7998 13.6 12.0958 13.872 11.5518 14.352L23.9998 22.4L36.4478 14.352C35.9038 13.872 35.1998 13.6 34.3998 13.6H13.5998ZM23.9998 24.336L10.6078 15.648C10.4798 16 10.3998 16.4 10.3998 16.8V31.2C10.3998 32.0487 10.7369 32.8626 11.3371 33.4627C11.9372 34.0629 12.7511 34.4 13.5998 34.4H34.3998C35.2485 34.4 36.0624 34.0629 36.6625 33.4627C37.2627 32.8626 37.5998 32.0487 37.5998 31.2V16.8C37.5998 16.4 37.5198 16 37.3918 15.648L23.9998 24.336Z" fill="url(#paint1_linear_65_9)"/>
<defs>
<linearGradient id="paint0_linear_65_9" x1="-2.12902e-08" y1="15.2523" x2="47.9118" y2="47.7017" gradientUnits="userSpaceOnUse">
<stop stop-color="#F36B23"/>
<stop offset="1" stop-color="#FF8F50"/>
</linearGradient>
<linearGradient id="paint1_linear_65_9" x1="8.7998" y1="19.6262" x2="34.2975" y2="41.5001" gradientUnits="userSpaceOnUse">
<stop stop-color="#F36B23"/>
<stop offset="1" stop-color="#FF8F50"/>
</linearGradient>
</defs>
</svg>
