<svg width="48" height="48" viewBox="0 0 48 48" fill="none" xmlns="http://www.w3.org/2000/svg">
<rect x="0.5" y="0.5" width="47" height="47" rx="11.5" fill="white"/>
<rect x="0.5" y="0.5" width="47" height="47" rx="11.5" stroke="url(#paint0_linear_57_204)"/>
<path d="M32.2173 22.2564H32.2503C34.0405 22.2564 35.7573 22.9675 37.0231 24.2333C38.2889 25.4991 39 27.2159 39 29.0061C39 30.7962 38.2889 32.513 37.0231 33.7788C35.7573 35.0446 34.0405 35.7557 32.2503 35.7557H16.5011C14.5742 35.7561 12.7211 35.0148 11.3261 33.6856C9.93112 32.3563 9.10127 30.5412 9.00867 28.6165C8.91608 26.6918 9.56784 24.8054 10.8288 23.3484C12.0897 21.8914 13.8631 20.9756 15.7811 20.791M32.2173 22.2564C32.2383 22.0094 32.2493 21.7594 32.2503 21.5064C32.2536 19.3783 31.4343 17.3312 29.9637 15.793C28.4931 14.2547 26.4849 13.3443 24.3588 13.2519C22.2327 13.1596 20.1531 13.8924 18.5546 15.2973C16.9561 16.7023 15.9624 18.6706 15.7811 20.791M32.2173 22.2564C32.0663 23.9085 31.4208 25.4766 30.3649 26.7562M15.7811 20.791C16.0181 20.768 16.2581 20.7565 16.5011 20.7565C18.19 20.7565 19.7484 21.3144 21.0009 22.2564" stroke="url(#paint1_linear_57_204)" stroke-linecap="round" stroke-linejoin="round"/>
<defs>
<linearGradient id="paint0_linear_57_204" x1="-2.12902e-08" y1="15.2523" x2="47.9118" y2="47.7017" gradientUnits="userSpaceOnUse">
<stop stop-color="#F36B23"/>
<stop offset="1" stop-color="#FF8F50"/>
</linearGradient>
<linearGradient id="paint1_linear_57_204" x1="9" y1="20.3974" x2="33.0714" y2="42.1234" gradientUnits="userSpaceOnUse">
<stop stop-color="#F36B23"/>
<stop offset="1" stop-color="#FF8F50"/>
</linearGradient>
</defs>
</svg>
