<svg width="124" height="124" viewBox="0 0 124 124" fill="none" xmlns="http://www.w3.org/2000/svg">
<rect x="1.5" y="1.5" width="121" height="121" rx="60.5" fill="white"/>
<rect x="1.5" y="1.5" width="121" height="121" rx="60.5" stroke="url(#paint0_linear_448_588)" stroke-width="3"/>
<g filter="url(#filter0_d_448_588)">
<path d="M44.8039 41.2404C44.8039 40.5766 45.0252 39.4069 44.9936 38.0793C44.9681 37.0217 44.8837 35.9663 44.7407 34.9181C44.5194 33.5272 44.9304 32.3892 44.2665 31.757C43.911 31.6207 43.5284 31.5697 43.1496 31.6081C42.7708 31.6466 42.4063 31.7733 42.0853 31.9783C41.3899 32.6737 41.4847 34.1594 41.3583 35.9297C41.3129 36.8037 41.3129 37.6794 41.3583 38.5534V40.7979C41.3389 41.4376 41.4917 42.0709 41.8008 42.6313C41.9776 42.8049 42.1888 42.9395 42.4208 43.0264C42.6529 43.1132 42.9005 43.1504 43.1478 43.1355C43.3951 43.1206 43.6366 43.054 43.8565 42.9399C44.0764 42.8258 44.27 42.6668 44.4246 42.4733C44.6437 42.0968 44.7735 41.675 44.8039 41.2404Z" fill="url(#paint1_linear_448_588)"/>
<path d="M99.8674 57.0115C99.6777 51.9536 99.2984 46.8958 98.8875 41.8064C98.8429 39.4352 98.6316 37.0701 98.2552 34.7286C97.9925 33.5745 97.474 32.4942 96.7379 31.5674C96.2959 31.0496 95.7595 30.6205 95.1573 30.303C94.0044 29.8139 92.8085 29.4329 91.5852 29.1649C89.909 28.7245 88.21 28.3762 86.4958 28.1218C83.9668 27.774 81.4063 27.5528 78.8458 27.3947C73.6929 27.0143 68.5234 26.9087 63.3593 27.0786C55.9622 27.2999 56.8473 27.4579 33.2367 29.5759C31.888 29.6728 30.5498 29.852 29.2221 30.1133C28.4341 30.4477 27.7318 30.9555 27.1673 31.599C26.6198 32.2049 26.162 32.8862 25.808 33.6222C25.0646 35.3222 24.5747 37.1222 24.3539 38.9645C24.087 41.6005 23.9709 44.2497 24.0062 46.899V59.5436C24.2275 65.8659 24.5752 72.185 24.8281 78.3176C24.8281 81.4788 24.5436 85.4618 25.0178 89.0023C25.2856 90.6376 25.8195 92.2181 26.5983 93.6808C27.0409 94.5375 27.7679 95.2203 28.6531 95.6091C29.6646 96.0137 30.7299 96.2793 31.8142 96.3994C33.3948 96.6207 34.9754 96.7471 36.5559 96.8419C38.8636 96.8419 41.2028 96.8419 43.4789 97C48.758 97 54.0055 97 59.2846 96.8103C67.0895 96.4942 74.8975 95.9252 82.7371 95.4194C85.9761 95.5026 89.2171 95.3864 92.4419 95.0717C94.1779 94.8387 95.8003 94.0772 97.0888 92.8905C98.0474 91.8258 98.711 90.529 99.0139 89.1287C99.3717 87.3699 99.5622 85.5811 99.5829 83.7864L99.8674 67.222V57.0115ZM26.6932 39.2458C26.8468 37.6342 27.2521 36.0566 27.8944 34.5705C28.1298 34.0352 28.4383 33.5352 28.8111 33.0848C29.1736 32.6751 29.6143 32.3419 30.1072 32.1048C30.1072 32.1048 61.3077 29.4811 63.4257 29.4178C68.4762 29.3133 73.5287 29.461 78.5644 29.8604C81.0301 30.0501 83.5274 30.303 85.9615 30.6823C87.5737 30.9668 89.1227 31.2829 90.7348 31.7255C91.6368 31.9362 92.5219 32.2102 93.3902 32.5474C93.7927 32.6841 94.1524 32.9239 94.4334 33.2428C95.0573 34.1844 95.4175 35.276 95.4766 36.404C95.7927 38.4271 95.6979 40.6399 95.8243 42.1889V42.3785H95.603C95.603 42.1573 94.4018 42.3785 94.0224 42.3785H90.8613L81.0617 42.6946C78.3115 42.6946 73.9808 42.8527 68.8913 42.9791C65.7302 42.9791 62.1897 43.1688 58.6492 43.2953C58.6492 43.2953 35.0038 44.6862 32.4148 44.8442L26.5351 45.0339C26.4782 43.1014 26.5309 41.1699 26.6932 39.2458ZM96.5166 67.1303L95.8527 83.7579C95.8622 85.3164 95.701 86.8748 95.3786 88.4048C95.2164 89.2037 94.8456 89.9454 94.3038 90.5544C93.1709 91.3904 91.7914 91.8242 90.384 91.7873C87.4757 92.0718 84.0617 91.7873 82.2914 91.9453C74.4834 92.4195 66.7101 92.9885 58.9337 93.3046C53.781 93.684 48.6284 93.684 43.4125 93.684H36.5844C35.0986 93.684 33.6161 93.5259 32.1619 93.3362C31.5343 93.2193 30.92 93.0392 30.3285 92.7988C30.1689 92.788 30.0149 92.7357 29.8818 92.647C29.7487 92.5582 29.6411 92.4362 29.5698 92.293C28.7909 90.6707 28.3499 88.9068 28.2737 87.1088C28.0208 83.9476 28.2737 80.7865 28.0841 78.0995C27.7363 71.7772 27.2622 65.4549 26.9144 59.3855C26.6785 55.259 26.552 51.127 26.5351 46.9938H56.8189C61.0548 46.9938 65.2244 46.7093 69.0178 46.5196C74.1072 46.2351 78.5012 45.8874 81.2198 45.6345L90.8929 44.781H95.7611C96.014 49.0486 96.2669 53.2845 96.3617 57.4256C96.7094 60.4603 96.7063 63.7795 96.5166 67.1303Z" fill="url(#paint2_linear_448_588)"/>
<path d="M55.0453 38.8064C54.9819 40.012 55.3519 41.2006 56.0884 42.1572C56.5626 42.6314 57.9219 42.7262 58.3012 42.1572C58.5636 41.1899 58.6616 40.1847 58.5857 39.1857C58.649 37.9971 58.649 36.8064 58.5857 35.6136C58.3645 33.6221 58.9335 32.4525 57.5742 31.5358C57.2299 31.3971 56.8569 31.3448 56.4877 31.3834C56.1186 31.422 55.7644 31.5502 55.4562 31.757C54.5079 32.7686 55.0769 33.4641 55.0136 35.2027C54.9462 36.4039 54.9567 37.6052 55.0453 38.8064ZM76.4462 60.9629C76.107 60.7956 75.7339 60.7086 75.3556 60.7086C74.9774 60.7086 74.6042 60.7956 74.265 60.9629C72.9306 61.5999 71.6781 62.3959 70.5349 63.3337C68.3811 65.0185 66.4008 66.9141 64.6235 68.9922C62.782 71.1151 61.2689 73.5019 60.1347 76.0732C59.5488 77.1869 59.0927 78.3642 58.7754 79.582C58.7102 80.0315 58.7353 80.4895 58.8493 80.9292C58.9633 81.3689 59.1638 81.7814 59.4393 82.1426C60.8302 84.0076 63.3907 84.1341 66.2041 82.3638C72.0455 78.0523 75.9525 71.6125 77.0785 64.4401C77.1977 63.6543 77.1977 62.8551 77.0785 62.0693C77.0556 61.8511 76.9876 61.64 76.8788 61.4495C76.7699 61.2591 76.6226 61.0933 76.4462 60.9629ZM67.4053 78.0647C66.2596 79.0717 64.928 79.8449 63.4855 80.3407C62.9481 80.3407 62.474 80.5936 62.2527 80.3407L63.4539 77.5589C64.2591 75.7839 65.2668 74.1079 66.457 72.5643C68.3221 70.1207 70.44 67.8858 72.7793 65.8943C72.7793 65.7362 73.7909 65.3885 74.5495 64.9775C74.376 67.5458 73.6474 70.0459 72.414 72.3053C71.1806 74.5647 69.4718 76.5297 67.4053 78.0647ZM62.3791 61.0925C62.5205 61.0806 62.6581 61.0408 62.784 60.9754C62.9099 60.9101 63.0216 60.8205 63.1127 60.7117C63.2038 60.603 63.2724 60.4773 63.3147 60.3419C63.357 60.2065 63.3721 60.0641 63.3591 59.9229C63.3591 58.9113 63.7068 57.9629 63.8332 56.7617C63.8649 56.3402 63.8649 55.9187 63.8332 55.4973C63.8649 55.1053 63.8649 54.7154 63.8332 54.3276C63.7176 53.7508 63.5699 53.1809 63.3907 52.6206V52.02C62.7585 51.2613 62.2843 51.04 61.8733 51.2929C61.4624 51.5458 61.3992 51.2929 61.2727 51.6723C60.922 52.5643 60.6471 53.4843 60.4508 54.4225C60.3876 55.0336 60.3876 55.6448 60.4508 56.2559C60.6342 57.5141 60.9292 58.7469 61.3359 59.9545C61.3274 60.0982 61.3479 60.2422 61.3961 60.3779C61.4443 60.5136 61.5193 60.6382 61.6166 60.7444C61.7139 60.8505 61.8315 60.936 61.9625 60.9958C62.0935 61.0556 62.2352 61.0885 62.3791 61.0925ZM47.6829 64.0924C46.9559 63.6498 46.134 63.3653 45.3753 62.986C44.4065 62.4307 43.3272 62.0961 42.2142 62.0061C41.2974 61.7215 40.4123 62.5751 41.7084 63.966C42.2142 64.5034 43.6683 65.7678 43.8896 65.9575C44.5998 66.4401 45.3374 66.8721 46.1024 67.2536C47.272 67.791 48.5048 68.0122 49.7061 68.4864C49.9451 68.6413 50.2358 68.695 50.5144 68.6358C50.7929 68.5765 51.0366 68.4091 51.1918 68.1703C51.3375 67.9205 51.3826 67.6247 51.318 67.3429C51.2534 67.061 51.084 66.8144 50.8441 66.6529C49.8712 65.7042 48.813 64.847 47.6829 64.0924ZM82.386 69.498C82.8286 69.7193 82.6705 69.8141 85.5472 68.0755C85.8001 67.9174 86.0529 67.791 86.3058 67.6013C86.6557 67.3189 86.9823 67.0133 87.2858 66.6846C88.2341 65.6414 88.898 64.535 89.3405 64.0292C89.4596 63.9528 89.562 63.8529 89.6412 63.7357C89.7205 63.6185 89.7751 63.4864 89.8018 63.3474C89.8284 63.2084 89.8264 63.0655 89.796 62.9273C89.7657 62.789 89.7075 62.6585 89.625 62.5434C89.5456 62.4233 89.4429 62.3204 89.3229 62.2408C89.2029 62.1611 89.0681 62.1064 88.9266 62.0799C88.7851 62.0534 88.6397 62.0555 88.499 62.0863C88.3583 62.1171 88.2252 62.1758 88.1077 62.2589C87.1327 62.6462 86.2004 63.1335 85.3259 63.7131C84.7652 64.0764 84.2551 64.5122 83.8085 65.0091C83.1284 65.8345 82.5647 66.7492 82.1331 67.7277C81.9751 68.0438 81.8486 68.2019 81.8486 68.3283C81.8802 69.0238 82.0383 69.4031 82.386 69.498ZM91.3953 81.0362C90.9012 80.7907 90.3818 80.5999 89.8463 80.4672C88.9994 80.2203 88.1318 80.051 87.2542 79.9614C86.834 79.9144 86.4099 79.9144 85.9897 79.9614L84.7569 80.3091C83.9761 80.4039 83.2142 80.641 82.5125 81.0045C82.228 81.0045 82.1964 81.3207 82.1015 81.4155C82.0067 81.5103 81.9118 82.5219 83.0499 82.8696C83.4608 82.8696 84.5672 83.1857 84.8201 83.249C85.073 83.3122 86.1162 83.5019 86.8116 83.5335C87.191 83.5819 87.5703 83.5819 87.9496 83.5335C88.9841 83.2848 90.0476 83.1785 91.1108 83.2174C91.3988 83.2175 91.6756 83.1053 91.8822 82.9046C92.0888 82.7039 92.209 82.4305 92.2172 82.1426C92.2172 81.8581 91.9643 81.4471 91.3953 81.0362ZM45.9127 81.0362C45.2094 80.6787 44.4505 80.4436 43.6683 80.3407L42.4354 79.993C42.0153 79.946 41.5912 79.946 41.171 79.993C40.2934 80.0826 39.4258 80.2519 38.5788 80.4988C38.0414 80.6294 37.5251 80.8191 37.0299 81.0678C36.4609 81.4471 36.208 81.8581 36.2712 82.1742C36.2712 83.1541 36.5873 83.1225 40.4755 83.5651C40.8549 83.6114 41.2342 83.6114 41.6135 83.5651C42.2774 83.5651 42.9096 83.3754 43.5735 83.2806C44.2373 83.1857 44.9644 83.0277 45.3753 82.9012C46.4817 82.5535 46.5133 81.7316 46.3237 81.4471C46.134 81.1626 46.134 81.0362 45.9127 81.0362Z" fill="url(#paint3_linear_448_588)"/>
</g>
<defs>
<filter id="filter0_d_448_588" x="24" y="27" width="79.8672" height="76" filterUnits="userSpaceOnUse" color-interpolation-filters="sRGB">
<feFlood flood-opacity="0" result="BackgroundImageFix"/>
<feColorMatrix in="SourceAlpha" type="matrix" values="0 0 0 0 0 0 0 0 0 0 0 0 0 0 0 0 0 0 127 0" result="hardAlpha"/>
<feOffset dx="2" dy="4"/>
<feGaussianBlur stdDeviation="1"/>
<feComposite in2="hardAlpha" operator="out"/>
<feColorMatrix type="matrix" values="0 0 0 0 0 0 0 0 0 0 0 0 0 0 0 0 0 0 0.14 0"/>
<feBlend mode="normal" in2="BackgroundImageFix" result="effect1_dropShadow_448_588"/>
<feBlend mode="normal" in="SourceGraphic" in2="effect1_dropShadow_448_588" result="shape"/>
</filter>
<linearGradient id="paint0_linear_448_588" x1="123.981" y1="124" x2="-37.0841" y2="-26.0748" gradientUnits="userSpaceOnUse">
<stop stop-color="#00C2E0"/>
<stop offset="1" stop-color="#00A3BF" stop-opacity="0.35"/>
</linearGradient>
<linearGradient id="paint1_linear_448_588" x1="44.9961" y1="43.1387" x2="36.8044" y2="40.7103" gradientUnits="userSpaceOnUse">
<stop stop-color="#00C2E0"/>
<stop offset="1" stop-color="#00A3BF" stop-opacity="0.35"/>
</linearGradient>
<linearGradient id="paint2_linear_448_588" x1="99.8559" y1="97" x2="8.70914" y2="4.95418" gradientUnits="userSpaceOnUse">
<stop stop-color="#00C2E0"/>
<stop offset="1" stop-color="#00A3BF" stop-opacity="0.35"/>
</linearGradient>
<linearGradient id="paint3_linear_448_588" x1="92.2087" y1="83.6196" x2="24.173" y2="15.7287" gradientUnits="userSpaceOnUse">
<stop stop-color="#00C2E0"/>
<stop offset="1" stop-color="#00A3BF" stop-opacity="0.35"/>
</linearGradient>
</defs>
</svg>
