<svg width="124" height="124" viewBox="0 0 124 124" fill="none" xmlns="http://www.w3.org/2000/svg">
<rect x="1.5" y="1.5" width="121" height="121" rx="60.5" fill="white"/>
<rect x="1.5" y="1.5" width="121" height="121" rx="60.5" stroke="url(#paint0_linear_448_581)" stroke-width="3"/>
<g filter="url(#filter0_d_448_581)">
<path fill-rule="evenodd" clip-rule="evenodd" d="M96.8282 98.481C94.6459 94.5509 91.599 91.1682 87.9176 88.5885C89.6619 87.07 90.9451 85.0924 91.6213 82.8808C92.2974 80.6691 92.3394 78.3121 91.7423 76.0777C91.1453 73.8434 89.9332 71.8215 88.2439 70.2419C86.5547 68.6623 84.4561 67.5884 82.1867 67.1425C80.1411 66.7275 78.0277 66.7857 76.008 67.3125C73.9883 67.8392 72.1158 68.8207 70.5334 70.1818C68.951 71.543 67.7007 73.2478 66.8779 75.1661C66.0552 77.0844 65.6818 79.1653 65.7863 81.25C66.0829 87.9953 72.5019 93.1328 76.9572 92.6286C77.085 92.6285 77.2113 92.6019 77.3283 92.5506C77.4453 92.4993 77.5504 92.4243 77.637 92.3304C77.7236 92.2365 77.7898 92.1257 77.8315 92.0049C77.8732 91.8841 77.8894 91.756 77.8791 91.6287C77.8688 91.5013 77.8323 91.3775 77.7718 91.265C77.7114 91.1524 77.6282 91.0537 77.5277 90.9748C77.4272 90.896 77.3114 90.8388 77.1877 90.8069C77.064 90.775 76.935 90.7691 76.8089 90.7895C74.5304 90.4357 72.453 89.2806 70.9501 87.5319C69.4472 85.7832 68.6175 83.5557 68.6102 81.25C68.6206 79.648 68.9803 78.0675 69.664 76.6187C70.3478 75.1699 71.3392 73.8876 72.5692 72.8612C73.7993 71.8348 75.2383 71.0889 76.7861 70.6755C78.3339 70.2621 79.9532 70.1912 81.5312 70.4676C89.3443 72.0101 92.3165 81.072 85.5712 87.58C84.3594 88.847 82.9046 89.8568 81.2939 90.5492C81.0388 90.6435 80.8309 90.834 80.7149 91.0799C80.5988 91.3258 80.5839 91.6074 80.6732 91.8642C80.7626 92.121 80.9491 92.3325 81.1928 92.4533C81.4364 92.574 81.7177 92.5943 81.9761 92.5099C83.5544 91.9592 85.0234 91.1348 86.3158 90.0746C88.7289 93.7828 91.74 97.0654 95.2264 99.7891C95.4081 99.9717 95.6511 100.08 95.9083 100.094C96.1655 100.107 96.4185 100.024 96.6182 99.8617C96.8179 99.699 96.9499 99.4679 96.9887 99.2133C97.0275 98.9587 96.9703 98.6987 96.8282 98.484M59.2813 72.369C53.1335 71.8621 46.9566 71.8126 40.8015 72.2207C36.3195 72.5173 32.6947 72.9326 30.4967 72.9919C30.221 72.9919 29.9565 73.1015 29.7615 73.2964C29.5666 73.4914 29.457 73.7559 29.457 74.0316C29.457 74.3073 29.5666 74.5718 29.7615 74.7668C29.9565 74.9617 30.221 75.0713 30.4967 75.0713C40.1311 75.8959 49.8308 75.6082 59.3999 74.2111C59.6442 74.1953 59.8722 74.0832 60.0338 73.8993C60.1954 73.7155 60.2774 73.475 60.2616 73.2307C60.2459 72.9864 60.1338 72.7584 59.9499 72.5968C59.7661 72.4352 59.5256 72.3533 59.2813 72.369Z" fill="url(#paint1_linear_448_581)"/>
<path fill-rule="evenodd" clip-rule="evenodd" d="M46.1196 52.6434C40.3519 57.5355 35.1054 63.0106 30.4636 68.9815C30.2809 69.1924 30.1867 69.4657 30.2006 69.7444C30.2144 70.0231 30.3354 70.2856 30.5382 70.4773C30.7409 70.669 31.0099 70.775 31.2889 70.7732C31.5679 70.7714 31.8355 70.6619 32.0358 70.4676C35.8978 66.4573 41.3973 62.9215 48.3799 54.2481C49.1214 51.098 48.1722 50.9793 46.1225 52.6464M67.5063 52.2281C64.5371 50.7153 63.5256 51.2196 64.893 54.3371C66.8649 56.7502 69.0739 58.9593 71.487 60.9311C71.5766 61.0365 71.6861 61.1232 71.8092 61.1862C71.9323 61.2493 72.0666 61.2875 72.2044 61.2987C72.3423 61.3098 72.481 61.2937 72.6126 61.2513C72.7443 61.2088 72.8663 61.1408 72.9716 61.0512C73.077 60.9617 73.1637 60.8522 73.2267 60.7291C73.2898 60.606 73.328 60.4717 73.3392 60.3338C73.3503 60.196 73.3342 60.0573 73.2918 59.9256C73.2493 59.794 73.1814 59.672 73.0918 59.5666C71.521 56.912 69.6466 54.4493 67.5063 52.2281Z" fill="url(#paint2_linear_448_581)"/>
<path fill-rule="evenodd" clip-rule="evenodd" d="M82.9842 31.3127C80.4896 28.8804 36.6097 26.976 28.9479 32.4132C28.4784 32.8158 28.1465 33.3551 27.9987 33.9556C26.569 39.1881 26.8952 66.9019 27.6101 71.8674C27.6908 72.0494 27.8285 72.2004 28.0024 72.2975C28.1762 72.3945 28.3769 72.4326 28.5742 72.4058C28.7716 72.3791 28.9549 72.289 29.0966 72.1491C29.2384 72.0092 29.3309 71.8271 29.3602 71.6301C29.0339 60.0647 29.4907 48.4933 30.7247 36.9901C34.8567 40.3183 51.9364 54.2804 57.2846 54.1618C63.7896 53.9838 81.4359 34.0802 81.7325 35.593C82.5808 43.4299 82.6698 51.329 81.9994 59.1807C81.9897 59.3174 82.007 59.4547 82.0503 59.5848C82.0936 59.7148 82.1622 59.8351 82.252 59.9386C82.3417 60.0422 82.4511 60.1271 82.5737 60.1884C82.6962 60.2497 82.8297 60.2863 82.9664 60.296C83.1032 60.3058 83.2405 60.2885 83.3705 60.2451C83.5006 60.2018 83.6208 60.1333 83.7244 60.0435C83.8279 59.9537 83.9128 59.8444 83.9741 59.7218C84.0354 59.5992 84.072 59.4657 84.0818 59.329C84.497 54.755 86.2471 34.5548 82.9813 31.3157M60.3754 49.1429C57.1066 51.1896 57.4032 51.2489 54.434 49.7065C48.8218 46.7313 36.6097 38.6512 31.3535 35.0858C31.0866 32.3242 73.5367 31.4343 79.8637 33.4247C73.9127 39.2694 67.383 44.4941 60.3754 49.0183V49.1429Z" fill="url(#paint3_linear_448_581)"/>
</g>
<defs>
<filter id="filter0_d_448_581" x="27" y="28.9043" width="74" height="77.1914" filterUnits="userSpaceOnUse" color-interpolation-filters="sRGB">
<feFlood flood-opacity="0" result="BackgroundImageFix"/>
<feColorMatrix in="SourceAlpha" type="matrix" values="0 0 0 0 0 0 0 0 0 0 0 0 0 0 0 0 0 0 127 0" result="hardAlpha"/>
<feOffset dx="2" dy="4"/>
<feGaussianBlur stdDeviation="1"/>
<feComposite in2="hardAlpha" operator="out"/>
<feColorMatrix type="matrix" values="0 0 0 0 0 0 0 0 0 0 0 0 0 0 0 0 0 0 0.14 0"/>
<feBlend mode="normal" in2="BackgroundImageFix" result="effect1_dropShadow_448_581"/>
<feBlend mode="normal" in="SourceGraphic" in2="effect1_dropShadow_448_581" result="shape"/>
</filter>
<linearGradient id="paint0_linear_448_581" x1="123.981" y1="124" x2="-37.0841" y2="-26.0748" gradientUnits="userSpaceOnUse">
<stop stop-color="#00C2E0"/>
<stop offset="1" stop-color="#00A3BF" stop-opacity="0.35"/>
</linearGradient>
<linearGradient id="paint1_linear_448_581" x1="96.9904" y1="100.095" x2="61.2646" y2="32.4253" gradientUnits="userSpaceOnUse">
<stop stop-color="#00C2E0"/>
<stop offset="1" stop-color="#00A3BF" stop-opacity="0.35"/>
</linearGradient>
<linearGradient id="paint2_linear_448_581" x1="73.3361" y1="70.7732" x2="53.6141" y2="29.8369" gradientUnits="userSpaceOnUse">
<stop stop-color="#00C2E0"/>
<stop offset="1" stop-color="#00A3BF" stop-opacity="0.35"/>
</linearGradient>
<linearGradient id="paint3_linear_448_581" x1="84.9134" y1="72.4142" x2="29.5465" y2="3.73683" gradientUnits="userSpaceOnUse">
<stop stop-color="#00C2E0"/>
<stop offset="1" stop-color="#00A3BF" stop-opacity="0.35"/>
</linearGradient>
</defs>
</svg>
