<svg width="17" height="18" viewBox="0 0 17 18" fill="none" xmlns="http://www.w3.org/2000/svg">
<path fill-rule="evenodd" clip-rule="evenodd" d="M8.33332 0.66666C3.73098 0.66666 0 4.3976 0 8.99998C0 13.6023 3.73098 17.3333 8.33332 17.3333C12.9357 17.3333 16.6667 13.6024 16.6667 8.99998C16.6667 4.3976 12.9357 0.66666 8.33332 0.66666ZM8.33332 15.6667C4.65734 15.6667 1.66668 12.676 1.66668 8.99998C1.66668 5.32397 4.6573 2.33334 8.33332 2.33334C12.0094 2.33334 15 5.32397 15 8.99998C15 12.676 12.0094 15.6667 8.33332 15.6667ZM9.37684 5.66666C9.37684 6.27088 8.93691 6.70834 8.3418 6.70834C7.72262 6.70834 7.29348 6.27084 7.29348 5.6551C7.29348 5.0633 7.73422 4.62502 8.3418 4.62502C8.93691 4.62502 9.37684 5.0633 9.37684 5.66666ZM7.50184 8.16666H9.16848V13.1667H7.50184V8.16666Z" fill="#1A2033" fill-opacity="0.7"/>
</svg>
