<svg width="15" height="16" viewBox="0 0 15 16" fill="none" xmlns="http://www.w3.org/2000/svg">
<path d="M0.789474 14.3868L3.62368 11.5526H12.6316C13.0503 11.5526 13.452 11.3863 13.7481 11.0902C14.0442 10.7941 14.2105 10.3924 14.2105 9.97368V2.86842C14.2105 2.44966 14.0442 2.04805 13.7481 1.75194C13.452 1.45583 13.0503 1.28947 12.6316 1.28947H2.36842C1.94966 1.28947 1.54805 1.45583 1.25194 1.75194C0.955827 2.04805 0.789474 2.44966 0.789474 2.86842V14.3868ZM0.789474 15.5H0V2.86842C0 2.24028 0.249529 1.63786 0.693695 1.19369C1.13786 0.749529 1.74028 0.5 2.36842 0.5H12.6316C13.2597 0.5 13.8621 0.749529 14.3063 1.19369C14.7505 1.63786 15 2.24028 15 2.86842V9.97368C15 10.6018 14.7505 11.2042 14.3063 11.6484C13.8621 12.0926 13.2597 12.3421 12.6316 12.3421H3.94737L0.789474 15.5Z" fill="#1A2033" fill-opacity="0.7"/>
</svg>
