<svg width="15" height="16" viewBox="0 0 15 16" fill="none" xmlns="http://www.w3.org/2000/svg">
<path d="M12.8141 2.68253C12.1229 1.98812 11.2998 1.43751 10.3926 1.06281C9.48542 0.688109 8.51237 0.496803 7.53015 0.50004C3.41457 0.50004 0.0603016 3.83753 0.0603016 7.93252C0.0603016 9.24502 0.407035 10.52 1.05528 11.645L0 15.5L3.95729 14.465C5.05025 15.0575 6.27889 15.3725 7.53015 15.3725C11.6457 15.3725 15 12.035 15 7.94002C15 5.95253 14.2236 4.08503 12.8141 2.68253ZM7.53015 14.1125C6.41457 14.1125 5.32161 13.8125 4.36432 13.25L4.13819 13.115L1.78643 13.73L2.41206 11.45L2.26131 11.2175C1.64137 10.2328 1.31225 9.09447 1.31156 7.93252C1.31156 4.52753 4.1005 1.75254 7.52261 1.75254C9.1809 1.75254 10.7412 2.39754 11.9095 3.56753C12.4882 4.14043 12.9467 4.82194 13.2585 5.57252C13.5703 6.32311 13.7293 7.12784 13.7261 7.94002C13.7412 11.345 10.9523 14.1125 7.53015 14.1125ZM10.9372 9.49252C10.7487 9.40252 9.82914 8.95252 9.66332 8.88502C9.48995 8.82502 9.36935 8.79502 9.24121 8.97502C9.11306 9.16252 8.75879 9.58252 8.65327 9.70252C8.54774 9.83002 8.43467 9.84502 8.24623 9.74752C8.05779 9.65752 7.45477 9.45502 6.74623 8.82502C6.18844 8.33002 5.8191 7.72252 5.70603 7.53502C5.6005 7.34752 5.69095 7.25002 5.78894 7.15252C5.87186 7.07002 5.97739 6.93502 6.06784 6.83002C6.15829 6.72502 6.19598 6.64252 6.25628 6.52252C6.31658 6.39502 6.28643 6.29003 6.24121 6.20003C6.19598 6.11003 5.81909 5.19503 5.66834 4.82003C5.51759 4.46003 5.3593 4.50503 5.24623 4.49753H4.88442C4.75628 4.49753 4.5603 4.54253 4.38693 4.73003C4.22111 4.91753 3.73869 5.36753 3.73869 6.28252C3.73869 7.19752 4.40955 8.08252 4.5 8.20252C4.59045 8.33002 5.8191 10.205 7.68844 11.0075C8.13317 11.2025 8.4799 11.315 8.75126 11.3975C9.19598 11.54 9.60301 11.5175 9.92714 11.4725C10.2889 11.42 11.0352 11.0225 11.1859 10.5875C11.3442 10.1525 11.3442 9.78502 11.2915 9.70252C11.2387 9.62002 11.1256 9.58252 10.9372 9.49252Z" fill="#1A2033" fill-opacity="0.7"/>
</svg>
