<svg width="18" height="16" viewBox="0 0 18 16" fill="none" xmlns="http://www.w3.org/2000/svg">
<path d="M1.8 15.5C1.305 15.5 0.8814 15.3166 0.5292 14.9497C0.177 14.5828 0.0006 14.1412 0 13.625V2.375C0 1.85937 0.1764 1.41812 0.5292 1.05125C0.882 0.684375 1.3056 0.500625 1.8 0.5H16.2C16.695 0.5 17.1189 0.68375 17.4717 1.05125C17.8245 1.41875 18.0006 1.86 18 2.375V13.625C18 14.1406 17.8239 14.5822 17.4717 14.9497C17.1195 15.3172 16.6956 15.5006 16.2 15.5H1.8ZM9 8.9375L1.8 4.25V13.625H16.2V4.25L9 8.9375ZM9 7.0625L16.2 2.375H1.8L9 7.0625ZM1.8 4.25V2.375V13.625V4.25Z" fill="#1A2033" fill-opacity="0.7"/>
</svg>
