<svg width="21" height="22" viewBox="0 0 21 22" fill="none" xmlns="http://www.w3.org/2000/svg">
<mask id="mask0_597_292" style="mask-type:luminance" maskUnits="userSpaceOnUse" x="0" y="0" width="21" height="22">
<path d="M20.6035 0.696655H0V21.3033H20.6035V0.696655Z" fill="white"/>
</mask>
<g mask="url(#mask0_597_292)">
<path d="M10.3017 21.3033C13.0343 21.3033 15.6548 20.2176 17.5863 18.2858C19.5179 16.3539 20.6035 13.733 20.6035 11C20.6035 8.26704 19.5179 5.64611 17.5863 3.71423C15.6548 1.78235 13.0343 0.696655 10.3017 0.696655C7.5692 0.696655 4.9487 1.78235 3.01712 3.71423C1.08555 5.64611 0 8.26704 0 11C0 13.733 1.08555 16.3539 3.01712 18.2858C4.9487 20.2176 7.5692 21.3033 10.3017 21.3033ZM15.0753 9.33472L9.92056 14.4864C9.8008 14.6062 9.65916 14.7015 9.50206 14.7659C9.34624 14.8303 9.17883 14.8638 9.01014 14.8638C8.84017 14.8638 8.67277 14.8303 8.51695 14.7659C8.35985 14.7015 8.21821 14.6062 8.09845 14.4864L5.52689 11.9106C5.2848 11.6684 5.14957 11.3413 5.14957 10.9987C5.15086 10.6574 5.28607 10.3303 5.52817 10.0881C5.77026 9.84601 6.09735 9.71078 6.43988 9.71078C6.78112 9.71207 7.10818 9.84731 7.35028 10.0894L9.01144 11.7547L13.2545 7.5136C13.4978 7.2792 13.8224 7.14911 14.1597 7.15169C14.4984 7.15555 14.8203 7.29078 15.0599 7.52905C15.2981 7.7686 15.4333 8.09059 15.4372 8.42931C15.4397 8.76674 15.3097 9.0913 15.0753 9.33472Z" fill="url(#paint0_linear_597_292)"/>
</g>
<defs>
<linearGradient id="paint0_linear_597_292" x1="10.3017" y1="0.696655" x2="10.3017" y2="21.3033" gradientUnits="userSpaceOnUse">
<stop stop-color="#00C2E0"/>
<stop offset="1" stop-color="#00FF73"/>
</linearGradient>
</defs>
</svg>
