<svg width="17" height="16" viewBox="0 0 17 16" fill="none" xmlns="http://www.w3.org/2000/svg">
<path d="M16.0439 16L9.9283 9.88514C9.43998 10.3011 8.87843 10.6231 8.24362 10.8509C7.60882 11.0788 6.97076 11.1927 6.32944 11.1927C4.76555 11.1927 3.4419 10.6514 2.3585 9.56875C1.2751 8.48614 0.733398 7.16298 0.733398 5.59927C0.733398 4.03556 1.27445 2.71175 2.35654 1.62783C3.43864 0.543914 4.76164 0.00130435 6.32554 2.34173e-06C7.88943 -0.00129966 9.21373 0.540334 10.2984 1.6249C11.3831 2.70947 11.9255 4.03328 11.9255 5.59634C11.9255 6.27468 11.8054 6.93122 11.5651 7.56595C11.3249 8.20067 11.0091 8.74361 10.6178 9.19475L16.7334 15.3086L16.0439 16ZM6.33042 10.2152C7.62607 10.2152 8.71989 9.76926 9.61187 8.87739C10.5039 7.98552 10.9498 6.89151 10.9498 5.59536C10.9498 4.29922 10.5039 3.20554 9.61187 2.31431C8.71989 1.42309 7.62607 0.977156 6.33042 0.976505C5.03477 0.975854 3.94063 1.42179 3.04799 2.31431C2.15536 3.20684 1.70937 4.30052 1.71002 5.59536C1.71067 6.89021 2.15666 7.98389 3.04799 8.87641C3.93932 9.76894 5.03314 10.2149 6.32944 10.2142" fill="#1A2033" fill-opacity="0.5"/>
</svg>
